<?xml version="1.0" encoding="utf-8"?>
<!-- Generator: Adobe Illustrator 15.1.0, SVG Export Plug-In . SVG Version: 6.00 Build 0)  -->
<!DOCTYPE svg PUBLIC "-//W3C//DTD SVG 1.1//EN" "http://www.w3.org/Graphics/SVG/1.1/DTD/svg11.dtd">
<svg version="1.1" id="Livello_1" xmlns="http://www.w3.org/2000/svg" xmlns:xlink="http://www.w3.org/1999/xlink" x="0px" y="0px"
	 width="29.848px" height="29.848px" viewBox="0 0 29.848 29.848" enable-background="new 0 0 29.848 29.848" xml:space="preserve">
<path fill="#010101" d="M14.924,0c-2.093,0-4.084,0.433-5.893,1.211C9.07,1.207,9.107,1.199,9.146,1.199
	c0.93,0,1.684,0.754,1.684,1.684s-0.754,1.683-1.684,1.683S7.462,3.813,7.462,2.883c0-0.438,0.171-0.83,0.444-1.131
	C3.202,4.265,0,9.221,0,14.924c0,8.243,6.682,14.924,14.924,14.924c8.243,0,14.924-6.681,14.924-14.924S23.167,0,14.924,0z
	 M10.83,15.79H7.462V5.688h3.368V15.79z M23.175,15.79h-3.237v-4.792c0-1.145-0.023-2.615-1.685-2.615
	c-1.686,0-1.942,1.245-1.942,2.531v4.876h-3.237V5.688h3.106v1.594h0.045c0.432-0.776,1.49-1.594,3.064-1.594
	c3.279,0,3.887,2.042,3.887,4.695L23.175,15.79L23.175,15.79z"/>
</svg>
