<?xml version="1.0" encoding="utf-8"?>
<!-- Generator: Adobe Illustrator 15.1.0, SVG Export Plug-In . SVG Version: 6.00 Build 0)  -->
<!DOCTYPE svg PUBLIC "-//W3C//DTD SVG 1.1//EN" "http://www.w3.org/Graphics/SVG/1.1/DTD/svg11.dtd">
<svg version="1.1" id="Livello_1" xmlns="http://www.w3.org/2000/svg" xmlns:xlink="http://www.w3.org/1999/xlink" x="0px" y="0px"
	 width="29.848px" height="29.848px" viewBox="0 0 29.848 29.848" enable-background="new 0 0 29.848 29.848" xml:space="preserve">
<path fill="#010101" d="M14.867,0C6.625,0-0.057,6.681-0.057,14.924c0,5.322,2.789,9.991,6.981,12.632
	c-0.375-0.352-0.647-0.724-0.803-1.114C5.945,26,5.857,25.358,5.857,24.518v-6.439H3.393v-2.602
	c0.722-0.232,1.527-0.568,2.041-1.006c0.516-0.438,0.928-0.964,1.239-1.578c0.312-0.612,0.526-1.393,0.644-2.341h2.96v4.593h4.591
	v3.442h-4.591v0.001v4.199c0,1.065-0.014,1.68,0.099,1.981c0.112,0.3,0.393,0.611,0.7,0.793c0.406,0.243,0.87,0.365,1.393,0.365
	c0.93,0,1.479-0.123,2.399-0.728v2.762c-0.784,0.368-1.468,0.583-2.104,0.732c-0.637,0.149-1.324,0.223-2.063,0.223
	c-0.587,0-1.005-0.053-1.424-0.156c1.727,0.7,3.614,1.088,5.591,1.088c8.242,0,14.924-6.681,14.924-14.924S23.109,0,14.867,0z"/>
</svg>
