<?xml version="1.0" encoding="utf-8"?>
<!-- Generator: Adobe Illustrator 15.1.0, SVG Export Plug-In . SVG Version: 6.00 Build 0)  -->
<!DOCTYPE svg PUBLIC "-//W3C//DTD SVG 1.1//EN" "http://www.w3.org/Graphics/SVG/1.1/DTD/svg11.dtd">
<svg version="1.1" id="Livello_1" xmlns="http://www.w3.org/2000/svg" xmlns:xlink="http://www.w3.org/1999/xlink" x="0px" y="0px"
	 width="29.782px" height="29.848px" viewBox="-0.114 0 29.782 29.848" enable-background="new -0.114 0 29.782 29.848"
	 xml:space="preserve">
<path d="M12.595,23.795c0,2.184-1.349,3.908-5.169,4.047c-2.239-1.273-4.115-3.109-5.436-5.316c0.688-1.701,2.841-2.998,5.302-2.971
	c0.698,0.008,1.35,0.119,1.94,0.311c1.626,1.131,2.938,1.838,3.268,3.125C12.562,23.252,12.595,23.522,12.595,23.795L12.595,23.795z
	 M14.777,0C10.474,0,6.599,1.825,3.88,4.744c1.073-0.595,2.342-0.949,3.691-0.949c1.951,0,7.458,0,7.458,0l-1.666,1.75h-1.958
	c1.381,0.792,2.116,2.421,2.116,4.217c0,1.648-0.913,2.977-2.204,3.986c-1.259,0.983-1.497,1.395-1.497,2.231
	c0,0.715,1.503,1.777,2.195,2.295c2.409,1.809,2.897,2.943,2.897,5.203c0,2.291-2.006,4.568-5.407,5.346
	c1.639,0.619,3.416,0.961,5.271,0.961c8.225,0,14.892-6.668,14.892-14.892C29.668,6.668,23.001,0.001,14.777,0L14.777,0z
	 M18.965,6.189v3.723h-1.861V6.189h-3.722V4.328h3.722V0.605h1.861v3.723h3.723v1.861H18.965z M10.524,9.873
	c0.346,2.641-0.81,4.339-2.819,4.279c-2.011-0.061-3.921-1.905-4.268-4.544c-0.346-2.64,1.001-4.661,3.011-4.601
	C8.457,5.068,10.178,7.234,10.524,9.873L10.524,9.873z M6.31,18.674c-2.173,0-4.018,0.748-5.318,1.857
	c-0.713-1.74-1.106-3.645-1.106-5.64c0-1.65,0.27-3.239,0.765-4.723c0.214,2.892,2.25,5.124,5.612,5.124
	c0.248,0,0.488-0.013,0.723-0.029c-0.23,0.442-0.395,0.937-0.395,1.454c0,0.871,0.479,1.367,1.073,1.945
	C7.215,18.662,6.783,18.674,6.31,18.674L6.31,18.674z"/>
</svg>
