<?xml version="1.0" encoding="utf-8"?>
<!-- Generator: Adobe Illustrator 15.1.0, SVG Export Plug-In . SVG Version: 6.00 Build 0)  -->
<!DOCTYPE svg PUBLIC "-//W3C//DTD SVG 1.1//EN" "http://www.w3.org/Graphics/SVG/1.1/DTD/svg11.dtd">
<svg version="1.1" id="Livello_1" xmlns="http://www.w3.org/2000/svg" xmlns:xlink="http://www.w3.org/1999/xlink" x="0px" y="0px"
	 width="440.667px" height="50px" viewBox="0 0 440.667 50" enable-background="new 0 0 440.667 50" xml:space="preserve">
<g>
	<g>
		<rect x="-3.785" y="-17.167" fill="none" width="448.598" height="54.766"/>
		<path fill="none" stroke="#FFFFFF" stroke-width="2" stroke-miterlimit="10" d="M26.48,7.68c0,2.119-1.416,3.652-4.248,4.6
			c-1.992,0.674-4.502,1.011-7.529,1.011H4.889v8.423H4.01V2.055h10.693c2.988,0,5.498,0.347,7.529,1.04
			C25.064,4.062,26.48,5.59,26.48,7.68z M25.631,7.68c0-1.934-1.289-3.34-3.867-4.219c-1.875-0.645-4.229-0.967-7.061-0.967H4.889
			v10.356h9.814c2.871,0,5.225-0.313,7.061-0.938C24.342,11.054,25.631,9.643,25.631,7.68z"/>
		<path fill="none" stroke="#FFFFFF" stroke-width="2" stroke-miterlimit="10" d="M61.051,21.713h-0.85V11.122H39.459v10.591H38.58
			V2.274h0.879v8.423h20.742V2.274h0.85V21.713z"/>
		<path fill="none" stroke="#FFFFFF" stroke-width="2" stroke-miterlimit="10" d="M95.621,16.308c0,1.563-1.094,2.886-3.281,3.97
			c-2.207,1.084-4.863,1.626-7.969,1.626c-3.125,0-5.781-0.542-7.969-1.626c-2.168-1.084-3.252-2.407-3.252-3.97V7.68
			c0-1.553,1.084-2.881,3.252-3.984c2.188-1.094,4.844-1.641,7.969-1.641s5.781,0.547,7.969,1.641s3.281,2.422,3.281,3.984V16.308z
			 M94.771,16.308V7.68c0-1.426-1.016-2.646-3.047-3.662s-4.482-1.523-7.354-1.523s-5.313,0.503-7.324,1.509
			s-3.018,2.231-3.018,3.677v8.628c0,1.455,1.006,2.686,3.018,3.691s4.453,1.509,7.324,1.509c2.891,0,5.342-0.503,7.354-1.509
			C93.756,18.983,94.771,17.753,94.771,16.308z"/>
		<path fill="none" stroke="#FFFFFF" stroke-width="2" stroke-miterlimit="10" d="M129.752,2.494H119.41v19.219h-0.879V2.494H108.16
			V2.055h21.592V2.494z"/>
		<path fill="none" stroke="#FFFFFF" stroke-width="2" stroke-miterlimit="10" d="M164.762,16.308c0,1.563-1.094,2.886-3.281,3.97
			c-2.207,1.084-4.863,1.626-7.969,1.626c-3.125,0-5.781-0.542-7.969-1.626c-2.168-1.084-3.252-2.407-3.252-3.97V7.68
			c0-1.553,1.084-2.881,3.252-3.984c2.188-1.094,4.844-1.641,7.969-1.641s5.781,0.547,7.969,1.641s3.281,2.422,3.281,3.984V16.308z
			 M163.912,16.308V7.68c0-1.426-1.016-2.646-3.047-3.662s-4.482-1.523-7.354-1.523s-5.313,0.503-7.324,1.509
			s-3.018,2.231-3.018,3.677v8.628c0,1.455,1.006,2.686,3.018,3.691s4.453,1.509,7.324,1.509c2.891,0,5.342-0.503,7.354-1.509
			C162.896,18.983,163.912,17.753,163.912,16.308z"/>
		<path fill="none" stroke="#FFFFFF" stroke-width="2" stroke-miterlimit="10" d="M199.332,17.436c0,1.074-0.752,2.061-2.256,2.959
			c-1.719,1.006-3.994,1.509-6.826,1.509c-2.129,0-4.424-0.205-6.885-0.615c-2.383-0.41-4.492-0.933-6.328-1.567l0.498-0.337
			c6.328,1.416,10.566,2.124,12.715,2.124c2.5,0,4.561-0.464,6.182-1.392c1.367-0.801,2.051-1.694,2.051-2.681
			c0-1.094-0.762-2.017-2.285-2.769c-1.016-0.508-2.695-1.055-5.039-1.641l-6.504-1.626c-1.406-0.352-2.9-0.776-4.482-1.274
			c-2.207-0.928-3.311-2.104-3.311-3.53c0-1.113,0.732-2.104,2.197-2.974c1.797-1.045,4.238-1.567,7.324-1.567
			c4.102,0,7.637,0.435,10.605,1.304l-0.469,0.366c-4.785-0.82-8.164-1.23-10.137-1.23c-2.832,0-5.049,0.469-6.65,1.406
			c-1.328,0.781-1.992,1.68-1.992,2.695c0,1.768,1.797,3.096,5.391,3.984c0.371,0.088,1.016,0.234,1.934,0.439
			c1.602,0.381,4.414,1.084,8.438,2.109C197.389,14.164,199.332,15.6,199.332,17.436z"/>
		<path fill="none" stroke="#FFFFFF" stroke-width="2" stroke-miterlimit="10" d="M233.902,21.713h-0.85V11.122h-20.742v10.591
			h-0.879V2.274h0.879v8.423h20.742V2.274h0.85V21.713z"/>
		<path fill="#FFFFFF" stroke="#FFFFFF" stroke-width="2" stroke-miterlimit="10" d="M268.473,16.308
			c0,1.563-1.094,2.886-3.281,3.97c-2.207,1.084-4.863,1.626-7.969,1.626c-3.125,0-5.781-0.542-7.969-1.626
			c-2.168-1.084-3.252-2.407-3.252-3.97V7.68c0-1.553,1.084-2.881,3.252-3.984c2.188-1.094,4.844-1.641,7.969-1.641
			s5.781,0.547,7.969,1.641s3.281,2.422,3.281,3.984V16.308z M267.623,16.308V7.68c0-1.426-1.016-2.646-3.047-3.662
			s-4.482-1.523-7.354-1.523s-5.313,0.503-7.324,1.509s-3.018,2.231-3.018,3.677v8.628c0,1.455,1.006,2.686,3.018,3.691
			s4.453,1.509,7.324,1.509c2.891,0,5.342-0.503,7.354-1.509C266.607,18.983,267.623,17.753,267.623,16.308z"/>
		<path fill="#FFFFFF" stroke="#FFFFFF" stroke-width="2" stroke-miterlimit="10" d="M303.043,16.308
			c0,1.563-1.094,2.886-3.281,3.97c-2.207,1.084-4.863,1.626-7.969,1.626c-3.125,0-5.781-0.542-7.969-1.626
			c-2.168-1.084-3.252-2.407-3.252-3.97V7.68c0-1.553,1.084-2.881,3.252-3.984c2.188-1.094,4.844-1.641,7.969-1.641
			s5.781,0.547,7.969,1.641s3.281,2.422,3.281,3.984V16.308z M302.193,16.308V7.68c0-1.426-1.016-2.646-3.047-3.662
			s-4.482-1.523-7.354-1.523s-5.313,0.503-7.324,1.509s-3.018,2.231-3.018,3.677v8.628c0,1.455,1.006,2.686,3.018,3.691
			s4.453,1.509,7.324,1.509c2.891,0,5.342-0.503,7.354-1.509C301.178,18.983,302.193,17.753,302.193,16.308z"/>
		<path fill="none" stroke="#FFFFFF" stroke-width="2" stroke-miterlimit="10" d="M337.174,2.494h-10.342v19.219h-0.879V2.494
			h-10.371V2.055h21.592V2.494z"/>
		<path fill="none" stroke="#FFFFFF" stroke-width="2" stroke-miterlimit="10" d="M367.438,21.903h-17.725V2.055h17.725v0.439
			h-16.846v8.203h12.51v0.425h-12.51v10.386h16.846V21.903z"/>
		<path fill="none" stroke="#FFFFFF" stroke-width="2" stroke-miterlimit="10" d="M402.418,7.68c0,3.037-2.803,4.849-8.408,5.435
			l8.379,8.511l-0.791,0.161l-8.467-8.584c-0.801,0.059-1.631,0.088-2.49,0.088h-9.814v8.423h-0.879V2.055h10.693
			c2.988,0,5.498,0.347,7.529,1.04C401.002,4.062,402.418,5.59,402.418,7.68z M401.568,7.68c0-1.934-1.289-3.34-3.867-4.219
			c-1.875-0.645-4.229-0.967-7.061-0.967h-9.814v10.356h9.814c2.871,0,5.225-0.313,7.061-0.938
			C400.279,11.054,401.568,9.643,401.568,7.68z"/>
		<path fill="none" stroke="#FFFFFF" stroke-width="2" stroke-miterlimit="10" d="M436.988,17.436c0,1.074-0.752,2.061-2.256,2.959
			c-1.719,1.006-3.994,1.509-6.826,1.509c-2.129,0-4.424-0.205-6.885-0.615c-2.383-0.41-4.492-0.933-6.328-1.567l0.498-0.337
			c6.328,1.416,10.566,2.124,12.715,2.124c2.5,0,4.561-0.464,6.182-1.392c1.367-0.801,2.051-1.694,2.051-2.681
			c0-1.094-0.762-2.017-2.285-2.769c-1.016-0.508-2.695-1.055-5.039-1.641l-6.504-1.626c-1.406-0.352-2.9-0.776-4.482-1.274
			c-2.207-0.928-3.311-2.104-3.311-3.53c0-1.113,0.732-2.104,2.197-2.974c1.797-1.045,4.238-1.567,7.324-1.567
			c4.102,0,7.637,0.435,10.605,1.304l-0.469,0.366c-4.785-0.82-8.164-1.23-10.137-1.23c-2.832,0-5.049,0.469-6.65,1.406
			c-1.328,0.781-1.992,1.68-1.992,2.695c0,1.768,1.797,3.096,5.391,3.984c0.371,0.088,1.016,0.234,1.934,0.439
			c1.602,0.381,4.414,1.084,8.438,2.109C435.045,14.164,436.988,15.6,436.988,17.436z"/>
	</g>
	<line fill="none" stroke="#FFFFFF" stroke-width="0.5" stroke-miterlimit="10" x1="2.881" y1="25.187" x2="438.007" y2="25.187"/>
	<defs>
		<filter id="Adobe_OpacityMaskFilter" filterUnits="userSpaceOnUse" x="-3.785" y="25.187" width="448.598" height="42">
			
				<feColorMatrix  type="matrix" values="-1 0 0 0 1  0 -1 0 0 1  0 0 -1 0 1  0 0 0 1 0" color-interpolation-filters="sRGB" result="source"/>
			<feFlood  style="flood-color:white;flood-opacity:1" result="back"/>
			<feBlend  in="source" in2="back" mode="normal"/>
		</filter>
	</defs>
	<mask maskUnits="userSpaceOnUse" x="-3.785" y="25.187" width="448.598" height="42" id="SVGID_1_">
		<g filter="url(#Adobe_OpacityMaskFilter)">
			<linearGradient id="SVGID_2_" gradientUnits="userSpaceOnUse" x1="220.5137" y1="49.6865" x2="220.5137" y2="25.187">
				<stop  offset="0" style="stop-color:#FFFFFF"/>
				<stop  offset="1" style="stop-color:#000000"/>
			</linearGradient>
			<rect x="-3.785" y="25.187" fill="url(#SVGID_2_)" width="448.598" height="24.5"/>
		</g>
	</mask>
	<g opacity="0.53" mask="url(#SVGID_1_)">
		<rect x="-3.785" y="25.187" fill="none" width="448.598" height="42"/>
		<linearGradient id="SVGID_3_" gradientUnits="userSpaceOnUse" x1="15.2451" y1="47.9648" x2="15.2451" y2="28.3066">
			<stop  offset="0" style="stop-color:#FFFFFF"/>
			<stop  offset="1" style="stop-color:#000000"/>
		</linearGradient>
		<path fill="url(#SVGID_3_)" stroke="#FFFFFF" stroke-width="2" stroke-miterlimit="10" d="M22.232,46.925
			c-2.032,0.693-4.541,1.04-7.529,1.04H4.01V28.307h0.879v8.423h9.814c3.027,0,5.537,0.337,7.529,1.011
			c2.832,0.947,4.248,2.48,4.248,4.6C26.48,44.43,25.064,45.958,22.232,46.925z M21.764,38.106
			c-1.836-0.625-4.189-0.938-7.061-0.938H4.889v10.356h9.814c2.832,0,5.186-0.322,7.061-0.967c2.578-0.879,3.867-2.285,3.867-4.219
			C25.631,40.377,24.342,38.966,21.764,38.106z"/>
		<linearGradient id="SVGID_4_" gradientUnits="userSpaceOnUse" x1="49.8154" y1="47.7451" x2="49.8154" y2="28.3066">
			<stop  offset="0" style="stop-color:#FFFFFF"/>
			<stop  offset="1" style="stop-color:#000000"/>
		</linearGradient>
		<path fill="url(#SVGID_4_)" stroke="#FFFFFF" stroke-width="2" stroke-miterlimit="10" d="M61.051,47.745h-0.85v-8.423H39.459
			v8.423H38.58V28.307h0.879v10.591h20.742V28.307h0.85V47.745z"/>
		<linearGradient id="SVGID_5_" gradientUnits="userSpaceOnUse" x1="84.3857" y1="47.9648" x2="84.3857" y2="28.1162">
			<stop  offset="0" style="stop-color:#FFFFFF"/>
			<stop  offset="1" style="stop-color:#000000"/>
		</linearGradient>
		<path fill="url(#SVGID_5_)" stroke="#FFFFFF" stroke-width="2" stroke-miterlimit="10" d="M95.621,42.34
			c0,1.563-1.094,2.891-3.281,3.984s-4.844,1.641-7.969,1.641s-5.781-0.547-7.969-1.641c-2.168-1.104-3.252-2.432-3.252-3.984
			v-8.628c0-1.563,1.084-2.886,3.252-3.97c2.188-1.084,4.844-1.626,7.969-1.626c3.105,0,5.762,0.542,7.969,1.626
			c2.188,1.084,3.281,2.407,3.281,3.97V42.34z M91.725,30.021c-2.012-1.006-4.463-1.509-7.354-1.509
			c-2.871,0-5.313,0.503-7.324,1.509s-3.018,2.236-3.018,3.691v8.628c0,1.445,1.006,2.671,3.018,3.677s4.453,1.509,7.324,1.509
			s5.322-0.508,7.354-1.523s3.047-2.236,3.047-3.662v-8.628C94.771,32.267,93.756,31.036,91.725,30.021z"/>
		<linearGradient id="SVGID_6_" gradientUnits="userSpaceOnUse" x1="118.9561" y1="47.9648" x2="118.9561" y2="28.3066">
			<stop  offset="0" style="stop-color:#FFFFFF"/>
			<stop  offset="1" style="stop-color:#000000"/>
		</linearGradient>
		<path fill="url(#SVGID_6_)" stroke="#FFFFFF" stroke-width="2" stroke-miterlimit="10" d="M129.752,47.965H108.16v-0.439h10.371
			V28.307h0.879v19.219h10.342V47.965z"/>
		<linearGradient id="SVGID_7_" gradientUnits="userSpaceOnUse" x1="153.5264" y1="47.9648" x2="153.5264" y2="28.1162">
			<stop  offset="0" style="stop-color:#FFFFFF"/>
			<stop  offset="1" style="stop-color:#000000"/>
		</linearGradient>
		<path fill="url(#SVGID_7_)" stroke="#FFFFFF" stroke-width="2" stroke-miterlimit="10" d="M164.762,42.34
			c0,1.563-1.094,2.891-3.281,3.984s-4.844,1.641-7.969,1.641s-5.781-0.547-7.969-1.641c-2.168-1.104-3.252-2.432-3.252-3.984
			v-8.628c0-1.563,1.084-2.886,3.252-3.97c2.188-1.084,4.844-1.626,7.969-1.626c3.105,0,5.762,0.542,7.969,1.626
			c2.188,1.084,3.281,2.407,3.281,3.97V42.34z M160.865,30.021c-2.012-1.006-4.463-1.509-7.354-1.509
			c-2.871,0-5.313,0.503-7.324,1.509s-3.018,2.236-3.018,3.691v8.628c0,1.445,1.006,2.671,3.018,3.677s4.453,1.509,7.324,1.509
			s5.322-0.508,7.354-1.523s3.047-2.236,3.047-3.662v-8.628C163.912,32.267,162.896,31.036,160.865,30.021z"/>
		<linearGradient id="SVGID_8_" gradientUnits="userSpaceOnUse" x1="188.0967" y1="47.9648" x2="188.0967" y2="28.1162">
			<stop  offset="0" style="stop-color:#FFFFFF"/>
			<stop  offset="1" style="stop-color:#000000"/>
		</linearGradient>
		<path fill="url(#SVGID_8_)" stroke="#FFFFFF" stroke-width="2" stroke-miterlimit="10" d="M193.502,36.891
			c-4.023,1.025-6.836,1.729-8.438,2.109c-0.918,0.205-1.563,0.352-1.934,0.439c-3.594,0.889-5.391,2.217-5.391,3.984
			c0,1.016,0.664,1.914,1.992,2.695c1.602,0.938,3.818,1.406,6.65,1.406c1.973,0,5.352-0.41,10.137-1.23l0.469,0.366
			c-2.969,0.869-6.504,1.304-10.605,1.304c-3.086,0-5.527-0.522-7.324-1.567c-1.465-0.869-2.197-1.86-2.197-2.974
			c0-1.426,1.104-2.603,3.311-3.53c1.582-0.498,3.076-0.923,4.482-1.274l6.504-1.626c2.344-0.586,4.023-1.133,5.039-1.641
			c1.523-0.752,2.285-1.675,2.285-2.769c0-0.986-0.684-1.88-2.051-2.681c-1.621-0.928-3.682-1.392-6.182-1.392
			c-2.148,0-6.387,0.708-12.715,2.124l-0.498-0.337c1.836-0.635,3.945-1.157,6.328-1.567c2.461-0.41,4.756-0.615,6.885-0.615
			c2.832,0,5.107,0.503,6.826,1.509c1.504,0.898,2.256,1.885,2.256,2.959C199.332,34.42,197.389,35.855,193.502,36.891z"/>
		<linearGradient id="SVGID_9_" gradientUnits="userSpaceOnUse" x1="222.667" y1="47.7451" x2="222.667" y2="28.3066">
			<stop  offset="0" style="stop-color:#FFFFFF"/>
			<stop  offset="1" style="stop-color:#000000"/>
		</linearGradient>
		<path fill="url(#SVGID_9_)" stroke="#FFFFFF" stroke-width="2" stroke-miterlimit="10" d="M233.902,47.745h-0.85v-8.423h-20.742
			v8.423h-0.879V28.307h0.879v10.591h20.742V28.307h0.85V47.745z"/>
		<linearGradient id="SVGID_10_" gradientUnits="userSpaceOnUse" x1="257.2373" y1="47.9648" x2="257.2373" y2="28.1162">
			<stop  offset="0" style="stop-color:#FFFFFF"/>
			<stop  offset="1" style="stop-color:#000000"/>
		</linearGradient>
		<path fill="url(#SVGID_10_)" stroke="#FFFFFF" stroke-width="2" stroke-miterlimit="10" d="M268.473,42.34
			c0,1.563-1.094,2.891-3.281,3.984s-4.844,1.641-7.969,1.641s-5.781-0.547-7.969-1.641c-2.168-1.104-3.252-2.432-3.252-3.984
			v-8.628c0-1.563,1.084-2.886,3.252-3.97c2.188-1.084,4.844-1.626,7.969-1.626c3.105,0,5.762,0.542,7.969,1.626
			c2.188,1.084,3.281,2.407,3.281,3.97V42.34z M264.576,30.021c-2.012-1.006-4.463-1.509-7.354-1.509
			c-2.871,0-5.313,0.503-7.324,1.509s-3.018,2.236-3.018,3.691v8.628c0,1.445,1.006,2.671,3.018,3.677s4.453,1.509,7.324,1.509
			s5.322-0.508,7.354-1.523s3.047-2.236,3.047-3.662v-8.628C267.623,32.267,266.607,31.036,264.576,30.021z"/>
		<linearGradient id="SVGID_11_" gradientUnits="userSpaceOnUse" x1="291.8076" y1="47.9648" x2="291.8076" y2="28.1162">
			<stop  offset="0" style="stop-color:#FFFFFF"/>
			<stop  offset="1" style="stop-color:#000000"/>
		</linearGradient>
		<path fill="url(#SVGID_11_)" stroke="#FFFFFF" stroke-width="2" stroke-miterlimit="10" d="M303.043,42.34
			c0,1.563-1.094,2.891-3.281,3.984s-4.844,1.641-7.969,1.641s-5.781-0.547-7.969-1.641c-2.168-1.104-3.252-2.432-3.252-3.984
			v-8.628c0-1.563,1.084-2.886,3.252-3.97c2.188-1.084,4.844-1.626,7.969-1.626c3.105,0,5.762,0.542,7.969,1.626
			c2.188,1.084,3.281,2.407,3.281,3.97V42.34z M299.146,30.021c-2.012-1.006-4.463-1.509-7.354-1.509
			c-2.871,0-5.313,0.503-7.324,1.509s-3.018,2.236-3.018,3.691v8.628c0,1.445,1.006,2.671,3.018,3.677s4.453,1.509,7.324,1.509
			s5.322-0.508,7.354-1.523s3.047-2.236,3.047-3.662v-8.628C302.193,32.267,301.178,31.036,299.146,30.021z"/>
		<linearGradient id="SVGID_12_" gradientUnits="userSpaceOnUse" x1="326.3779" y1="47.9648" x2="326.3779" y2="28.3066">
			<stop  offset="0" style="stop-color:#FFFFFF"/>
			<stop  offset="1" style="stop-color:#000000"/>
		</linearGradient>
		<path fill="url(#SVGID_12_)" stroke="#FFFFFF" stroke-width="2" stroke-miterlimit="10" d="M337.174,47.965h-21.592v-0.439h10.371
			V28.307h0.879v19.219h10.342V47.965z"/>
		<linearGradient id="SVGID_13_" gradientUnits="userSpaceOnUse" x1="358.5752" y1="47.9648" x2="358.5752" y2="28.1162">
			<stop  offset="0" style="stop-color:#FFFFFF"/>
			<stop  offset="1" style="stop-color:#000000"/>
		</linearGradient>
		<path fill="url(#SVGID_13_)" stroke="#FFFFFF" stroke-width="2" stroke-miterlimit="10" d="M367.438,28.512h-16.846v10.386h12.51
			v0.425h-12.51v8.203h16.846v0.439h-17.725V28.116h17.725V28.512z"/>
		<linearGradient id="SVGID_14_" gradientUnits="userSpaceOnUse" x1="391.1826" y1="47.9648" x2="391.1826" y2="28.2334">
			<stop  offset="0" style="stop-color:#FFFFFF"/>
			<stop  offset="1" style="stop-color:#000000"/>
		</linearGradient>
		<path fill="url(#SVGID_14_)" stroke="#FFFFFF" stroke-width="2" stroke-miterlimit="10" d="M398.17,46.925
			c-2.031,0.693-4.541,1.04-7.529,1.04h-10.693V28.307h0.879v8.423h9.814c0.859,0,1.689,0.029,2.49,0.088l8.467-8.584l0.791,0.161
			l-8.379,8.511c5.605,0.586,8.408,2.397,8.408,5.435C402.418,44.43,401.002,45.958,398.17,46.925z M397.701,38.106
			c-1.836-0.625-4.189-0.938-7.061-0.938h-9.814v10.356h9.814c2.832,0,5.186-0.322,7.061-0.967c2.578-0.879,3.867-2.285,3.867-4.219
			C401.568,40.377,400.279,38.966,397.701,38.106z"/>
		<linearGradient id="SVGID_15_" gradientUnits="userSpaceOnUse" x1="425.7529" y1="47.9648" x2="425.7529" y2="28.1162">
			<stop  offset="0" style="stop-color:#FFFFFF"/>
			<stop  offset="1" style="stop-color:#000000"/>
		</linearGradient>
		<path fill="url(#SVGID_15_)" stroke="#FFFFFF" stroke-width="2" stroke-miterlimit="10" d="M431.158,36.891
			c-4.023,1.025-6.836,1.729-8.438,2.109c-0.918,0.205-1.563,0.352-1.934,0.439c-3.594,0.889-5.391,2.217-5.391,3.984
			c0,1.016,0.664,1.914,1.992,2.695c1.602,0.938,3.818,1.406,6.65,1.406c1.973,0,5.352-0.41,10.137-1.23l0.469,0.366
			c-2.969,0.869-6.504,1.304-10.605,1.304c-3.086,0-5.527-0.522-7.324-1.567c-1.465-0.869-2.197-1.86-2.197-2.974
			c0-1.426,1.104-2.603,3.311-3.53c1.582-0.498,3.076-0.923,4.482-1.274l6.504-1.626c2.344-0.586,4.023-1.133,5.039-1.641
			c1.523-0.752,2.285-1.675,2.285-2.769c0-0.986-0.684-1.88-2.051-2.681c-1.621-0.928-3.682-1.392-6.182-1.392
			c-2.148,0-6.387,0.708-12.715,2.124l-0.498-0.337c1.836-0.635,3.945-1.157,6.328-1.567c2.461-0.41,4.756-0.615,6.885-0.615
			c2.832,0,5.107,0.503,6.826,1.509c1.504,0.898,2.256,1.885,2.256,2.959C436.988,34.42,435.045,35.855,431.158,36.891z"/>
	</g>
</g>
</svg>
