<?xml version="1.0" encoding="utf-8"?>
<!-- Generator: Adobe Illustrator 15.1.0, SVG Export Plug-In . SVG Version: 6.00 Build 0)  -->
<!DOCTYPE svg PUBLIC "-//W3C//DTD SVG 1.1//EN" "http://www.w3.org/Graphics/SVG/1.1/DTD/svg11.dtd">
<svg version="1.1" xmlns="http://www.w3.org/2000/svg" xmlns:xlink="http://www.w3.org/1999/xlink" x="0px" y="0px" width="467px"
	 height="72px" viewBox="0 0 467 72" enable-background="new 0 0 467 72" xml:space="preserve">
<g id="Livello_3">
	<rect fill="#9FB2C2" width="467" height="72"/>
</g>
<g id="Livello_1">
	<g>
		<rect x="13" y="-5.854" fill="none" width="448.598" height="54.766"/>
		<path fill="none" stroke="#FFFFFF" stroke-width="2" stroke-miterlimit="10" d="M43.266,18.993c0,2.119-1.416,3.652-4.248,4.6
			c-1.992,0.674-4.502,1.011-7.529,1.011h-9.814v8.423h-0.879V13.368h10.693c2.988,0,5.498,0.347,7.529,1.04
			C41.85,15.375,43.266,16.903,43.266,18.993z M42.416,18.993c0-1.934-1.289-3.34-3.867-4.219c-1.875-0.645-4.229-0.967-7.061-0.967
			h-9.814v10.356h9.814c2.871,0,5.225-0.313,7.061-0.938C41.127,22.367,42.416,20.956,42.416,18.993z"/>
		<path fill="none" stroke="#FFFFFF" stroke-width="2" stroke-miterlimit="10" d="M77.836,33.026h-0.85V22.436H56.244v10.591h-0.879
			V13.588h0.879v8.423h20.742v-8.423h0.85V33.026z"/>
		<path fill="none" stroke="#FFFFFF" stroke-width="2" stroke-miterlimit="10" d="M112.406,27.621c0,1.563-1.094,2.886-3.281,3.97
			c-2.207,1.084-4.863,1.626-7.969,1.626c-3.125,0-5.781-0.542-7.969-1.626c-2.168-1.084-3.252-2.407-3.252-3.97v-8.628
			c0-1.553,1.084-2.881,3.252-3.984c2.188-1.094,4.844-1.641,7.969-1.641s5.781,0.547,7.969,1.641s3.281,2.422,3.281,3.984V27.621z
			 M111.557,27.621v-8.628c0-1.426-1.016-2.646-3.047-3.662s-4.482-1.523-7.354-1.523s-5.313,0.503-7.324,1.509
			s-3.018,2.231-3.018,3.677v8.628c0,1.455,1.006,2.686,3.018,3.691s4.453,1.509,7.324,1.509c2.891,0,5.342-0.503,7.354-1.509
			C110.541,30.297,111.557,29.066,111.557,27.621z"/>
		<path fill="none" stroke="#FFFFFF" stroke-width="2" stroke-miterlimit="10" d="M146.537,13.808h-10.342v19.219h-0.879V13.808
			h-10.371v-0.439h21.592V13.808z"/>
		<path fill="none" stroke="#FFFFFF" stroke-width="2" stroke-miterlimit="10" d="M181.547,27.621c0,1.563-1.094,2.886-3.281,3.97
			c-2.207,1.084-4.863,1.626-7.969,1.626c-3.125,0-5.781-0.542-7.969-1.626c-2.168-1.084-3.252-2.407-3.252-3.97v-8.628
			c0-1.553,1.084-2.881,3.252-3.984c2.188-1.094,4.844-1.641,7.969-1.641s5.781,0.547,7.969,1.641s3.281,2.422,3.281,3.984V27.621z
			 M180.697,27.621v-8.628c0-1.426-1.016-2.646-3.047-3.662s-4.482-1.523-7.354-1.523s-5.313,0.503-7.324,1.509
			s-3.018,2.231-3.018,3.677v8.628c0,1.455,1.006,2.686,3.018,3.691s4.453,1.509,7.324,1.509c2.891,0,5.342-0.503,7.354-1.509
			C179.682,30.297,180.697,29.066,180.697,27.621z"/>
		<path fill="none" stroke="#FFFFFF" stroke-width="2" stroke-miterlimit="10" d="M216.117,28.749c0,1.074-0.752,2.061-2.256,2.959
			c-1.719,1.006-3.994,1.509-6.826,1.509c-2.129,0-4.424-0.205-6.885-0.615c-2.383-0.41-4.492-0.933-6.328-1.567l0.498-0.337
			c6.328,1.416,10.566,2.124,12.715,2.124c2.5,0,4.561-0.464,6.182-1.392c1.367-0.801,2.051-1.694,2.051-2.681
			c0-1.094-0.762-2.017-2.285-2.769c-1.016-0.508-2.695-1.055-5.039-1.641l-6.504-1.626c-1.406-0.352-2.9-0.776-4.482-1.274
			c-2.207-0.928-3.311-2.104-3.311-3.53c0-1.113,0.732-2.104,2.197-2.974c1.797-1.045,4.238-1.567,7.324-1.567
			c4.102,0,7.637,0.435,10.605,1.304l-0.469,0.366c-4.785-0.82-8.164-1.23-10.137-1.23c-2.832,0-5.049,0.469-6.65,1.406
			c-1.328,0.781-1.992,1.68-1.992,2.695c0,1.768,1.797,3.096,5.391,3.984c0.371,0.088,1.016,0.234,1.934,0.439
			c1.602,0.381,4.414,1.084,8.438,2.109C214.174,25.478,216.117,26.913,216.117,28.749z"/>
		<path fill="none" stroke="#FFFFFF" stroke-width="2" stroke-miterlimit="10" d="M250.688,33.026h-0.85V22.436h-20.742v10.591
			h-0.879V13.588h0.879v8.423h20.742v-8.423h0.85V33.026z"/>
		<path fill="#FFFFFF" stroke="#FFFFFF" stroke-width="2" stroke-miterlimit="10" d="M285.258,27.621
			c0,1.563-1.094,2.886-3.281,3.97c-2.207,1.084-4.863,1.626-7.969,1.626c-3.125,0-5.781-0.542-7.969-1.626
			c-2.168-1.084-3.252-2.407-3.252-3.97v-8.628c0-1.553,1.084-2.881,3.252-3.984c2.188-1.094,4.844-1.641,7.969-1.641
			s5.781,0.547,7.969,1.641s3.281,2.422,3.281,3.984V27.621z M284.408,27.621v-8.628c0-1.426-1.016-2.646-3.047-3.662
			s-4.482-1.523-7.354-1.523s-5.313,0.503-7.324,1.509s-3.018,2.231-3.018,3.677v8.628c0,1.455,1.006,2.686,3.018,3.691
			s4.453,1.509,7.324,1.509c2.891,0,5.342-0.503,7.354-1.509C283.393,30.297,284.408,29.066,284.408,27.621z"/>
		<path fill="#FFFFFF" stroke="#FFFFFF" stroke-width="2" stroke-miterlimit="10" d="M319.828,27.621
			c0,1.563-1.094,2.886-3.281,3.97c-2.207,1.084-4.863,1.626-7.969,1.626c-3.125,0-5.781-0.542-7.969-1.626
			c-2.168-1.084-3.252-2.407-3.252-3.97v-8.628c0-1.553,1.084-2.881,3.252-3.984c2.188-1.094,4.844-1.641,7.969-1.641
			s5.781,0.547,7.969,1.641s3.281,2.422,3.281,3.984V27.621z M318.979,27.621v-8.628c0-1.426-1.016-2.646-3.047-3.662
			s-4.482-1.523-7.354-1.523s-5.313,0.503-7.324,1.509s-3.018,2.231-3.018,3.677v8.628c0,1.455,1.006,2.686,3.018,3.691
			s4.453,1.509,7.324,1.509c2.891,0,5.342-0.503,7.354-1.509C317.963,30.297,318.979,29.066,318.979,27.621z"/>
		<path fill="none" stroke="#FFFFFF" stroke-width="2" stroke-miterlimit="10" d="M353.959,13.808h-10.342v19.219h-0.879V13.808
			h-10.371v-0.439h21.592V13.808z"/>
		<path fill="none" stroke="#FFFFFF" stroke-width="2" stroke-miterlimit="10" d="M384.223,33.217h-17.725V13.368h17.725v0.439
			h-16.846v8.203h12.51v0.425h-12.51v10.386h16.846V33.217z"/>
		<path fill="none" stroke="#FFFFFF" stroke-width="2" stroke-miterlimit="10" d="M419.203,18.993c0,3.037-2.803,4.849-8.408,5.435
			l8.379,8.511l-0.791,0.161l-8.467-8.584c-0.801,0.059-1.631,0.088-2.49,0.088h-9.814v8.423h-0.879V13.368h10.693
			c2.988,0,5.498,0.347,7.529,1.04C417.787,15.375,419.203,16.903,419.203,18.993z M418.354,18.993c0-1.934-1.289-3.34-3.867-4.219
			c-1.875-0.645-4.229-0.967-7.061-0.967h-9.814v10.356h9.814c2.871,0,5.225-0.313,7.061-0.938
			C417.064,22.367,418.354,20.956,418.354,18.993z"/>
		<path fill="none" stroke="#FFFFFF" stroke-width="2" stroke-miterlimit="10" d="M453.773,28.749c0,1.074-0.752,2.061-2.256,2.959
			c-1.719,1.006-3.994,1.509-6.826,1.509c-2.129,0-4.424-0.205-6.885-0.615c-2.383-0.41-4.492-0.933-6.328-1.567l0.498-0.337
			c6.328,1.416,10.566,2.124,12.715,2.124c2.5,0,4.561-0.464,6.182-1.392c1.367-0.801,2.051-1.694,2.051-2.681
			c0-1.094-0.762-2.017-2.285-2.769c-1.016-0.508-2.695-1.055-5.039-1.641l-6.504-1.626c-1.406-0.352-2.9-0.776-4.482-1.274
			c-2.207-0.928-3.311-2.104-3.311-3.53c0-1.113,0.732-2.104,2.197-2.974c1.797-1.045,4.238-1.567,7.324-1.567
			c4.102,0,7.637,0.435,10.605,1.304l-0.469,0.366c-4.785-0.82-8.164-1.23-10.137-1.23c-2.832,0-5.049,0.469-6.65,1.406
			c-1.328,0.781-1.992,1.68-1.992,2.695c0,1.768,1.797,3.096,5.391,3.984c0.371,0.088,1.016,0.234,1.934,0.439
			c1.602,0.381,4.414,1.084,8.438,2.109C451.83,25.478,453.773,26.913,453.773,28.749z"/>
	</g>
	<line fill="none" stroke="#FFFFFF" stroke-width="0.5" stroke-miterlimit="10" x1="19.667" y1="36.5" x2="454.792" y2="36.5"/>
	<defs>
		<filter id="Adobe_OpacityMaskFilter" filterUnits="userSpaceOnUse" x="13" y="36.5" width="448.598" height="42">
			
				<feColorMatrix  type="matrix" values="-1 0 0 0 1  0 -1 0 0 1  0 0 -1 0 1  0 0 0 1 0" color-interpolation-filters="sRGB" result="source"/>
			<feFlood  style="flood-color:white;flood-opacity:1" result="back"/>
			<feBlend  in="source" in2="back" mode="normal"/>
		</filter>
	</defs>
	<mask maskUnits="userSpaceOnUse" x="13" y="36.5" width="448.598" height="42" id="SVGID_1_">
		<g filter="url(#Adobe_OpacityMaskFilter)">
			<linearGradient id="SVGID_2_" gradientUnits="userSpaceOnUse" x1="237.2993" y1="61" x2="237.2993" y2="36.5">
				<stop  offset="0" style="stop-color:#FFFFFF"/>
				<stop  offset="1" style="stop-color:#000000"/>
			</linearGradient>
			<rect x="13" y="36.5" fill="url(#SVGID_2_)" width="448.598" height="24.5"/>
		</g>
	</mask>
	<g opacity="0.53" mask="url(#SVGID_1_)">
		<rect x="13" y="36.5" fill="none" width="448.598" height="42"/>
		<linearGradient id="SVGID_3_" gradientUnits="userSpaceOnUse" x1="32.0303" y1="59.2783" x2="32.0303" y2="39.6201">
			<stop  offset="0" style="stop-color:#FFFFFF"/>
			<stop  offset="1" style="stop-color:#000000"/>
		</linearGradient>
		<path fill="url(#SVGID_3_)" stroke="#FFFFFF" stroke-width="2" stroke-miterlimit="10" d="M39.018,58.238
			c-2.032,0.693-4.541,1.04-7.529,1.04H20.795V39.62h0.879v8.423h9.814c3.027,0,5.537,0.337,7.529,1.011
			c2.832,0.947,4.248,2.48,4.248,4.6C43.266,55.743,41.85,57.271,39.018,58.238z M38.549,49.42
			c-1.836-0.625-4.189-0.938-7.061-0.938h-9.814v10.356h9.814c2.832,0,5.186-0.322,7.061-0.967c2.578-0.879,3.867-2.285,3.867-4.219
			C42.416,51.69,41.127,50.279,38.549,49.42z"/>
		<linearGradient id="SVGID_4_" gradientUnits="userSpaceOnUse" x1="66.6006" y1="59.0586" x2="66.6006" y2="39.6201">
			<stop  offset="0" style="stop-color:#FFFFFF"/>
			<stop  offset="1" style="stop-color:#000000"/>
		</linearGradient>
		<path fill="url(#SVGID_4_)" stroke="#FFFFFF" stroke-width="2" stroke-miterlimit="10" d="M77.836,59.059h-0.85v-8.423H56.244
			v8.423h-0.879V39.62h0.879v10.591h20.742V39.62h0.85V59.059z"/>
		<linearGradient id="SVGID_5_" gradientUnits="userSpaceOnUse" x1="101.1709" y1="59.2783" x2="101.1709" y2="39.4297">
			<stop  offset="0" style="stop-color:#FFFFFF"/>
			<stop  offset="1" style="stop-color:#000000"/>
		</linearGradient>
		<path fill="url(#SVGID_5_)" stroke="#FFFFFF" stroke-width="2" stroke-miterlimit="10" d="M112.406,53.653
			c0,1.563-1.094,2.891-3.281,3.984s-4.844,1.641-7.969,1.641s-5.781-0.547-7.969-1.641c-2.168-1.104-3.252-2.432-3.252-3.984
			v-8.628c0-1.563,1.084-2.886,3.252-3.97c2.188-1.084,4.844-1.626,7.969-1.626c3.105,0,5.762,0.542,7.969,1.626
			c2.188,1.084,3.281,2.407,3.281,3.97V53.653z M108.51,41.334c-2.012-1.006-4.463-1.509-7.354-1.509
			c-2.871,0-5.313,0.503-7.324,1.509s-3.018,2.236-3.018,3.691v8.628c0,1.445,1.006,2.671,3.018,3.677s4.453,1.509,7.324,1.509
			s5.322-0.508,7.354-1.523s3.047-2.236,3.047-3.662v-8.628C111.557,43.58,110.541,42.35,108.51,41.334z"/>
		<linearGradient id="SVGID_6_" gradientUnits="userSpaceOnUse" x1="135.7412" y1="59.2783" x2="135.7412" y2="39.6201">
			<stop  offset="0" style="stop-color:#FFFFFF"/>
			<stop  offset="1" style="stop-color:#000000"/>
		</linearGradient>
		<path fill="url(#SVGID_6_)" stroke="#FFFFFF" stroke-width="2" stroke-miterlimit="10" d="M146.537,59.278h-21.592v-0.439h10.371
			V39.62h0.879v19.219h10.342V59.278z"/>
		<linearGradient id="SVGID_7_" gradientUnits="userSpaceOnUse" x1="170.3115" y1="59.2783" x2="170.3115" y2="39.4297">
			<stop  offset="0" style="stop-color:#FFFFFF"/>
			<stop  offset="1" style="stop-color:#000000"/>
		</linearGradient>
		<path fill="url(#SVGID_7_)" stroke="#FFFFFF" stroke-width="2" stroke-miterlimit="10" d="M181.547,53.653
			c0,1.563-1.094,2.891-3.281,3.984s-4.844,1.641-7.969,1.641s-5.781-0.547-7.969-1.641c-2.168-1.104-3.252-2.432-3.252-3.984
			v-8.628c0-1.563,1.084-2.886,3.252-3.97c2.188-1.084,4.844-1.626,7.969-1.626c3.105,0,5.762,0.542,7.969,1.626
			c2.188,1.084,3.281,2.407,3.281,3.97V53.653z M177.65,41.334c-2.012-1.006-4.463-1.509-7.354-1.509
			c-2.871,0-5.313,0.503-7.324,1.509s-3.018,2.236-3.018,3.691v8.628c0,1.445,1.006,2.671,3.018,3.677s4.453,1.509,7.324,1.509
			s5.322-0.508,7.354-1.523s3.047-2.236,3.047-3.662v-8.628C180.697,43.58,179.682,42.35,177.65,41.334z"/>
		<linearGradient id="SVGID_8_" gradientUnits="userSpaceOnUse" x1="204.8818" y1="59.2783" x2="204.8818" y2="39.4297">
			<stop  offset="0" style="stop-color:#FFFFFF"/>
			<stop  offset="1" style="stop-color:#000000"/>
		</linearGradient>
		<path fill="url(#SVGID_8_)" stroke="#FFFFFF" stroke-width="2" stroke-miterlimit="10" d="M210.287,48.204
			c-4.023,1.025-6.836,1.729-8.438,2.109c-0.918,0.205-1.563,0.352-1.934,0.439c-3.594,0.889-5.391,2.217-5.391,3.984
			c0,1.016,0.664,1.914,1.992,2.695c1.602,0.938,3.818,1.406,6.65,1.406c1.973,0,5.352-0.41,10.137-1.23l0.469,0.366
			c-2.969,0.869-6.504,1.304-10.605,1.304c-3.086,0-5.527-0.522-7.324-1.567c-1.465-0.869-2.197-1.86-2.197-2.974
			c0-1.426,1.104-2.603,3.311-3.53c1.582-0.498,3.076-0.923,4.482-1.274l6.504-1.626c2.344-0.586,4.023-1.133,5.039-1.641
			c1.523-0.752,2.285-1.675,2.285-2.769c0-0.986-0.684-1.88-2.051-2.681c-1.621-0.928-3.682-1.392-6.182-1.392
			c-2.148,0-6.387,0.708-12.715,2.124l-0.498-0.337c1.836-0.635,3.945-1.157,6.328-1.567c2.461-0.41,4.756-0.615,6.885-0.615
			c2.832,0,5.107,0.503,6.826,1.509c1.504,0.898,2.256,1.885,2.256,2.959C216.117,45.733,214.174,47.169,210.287,48.204z"/>
		<linearGradient id="SVGID_9_" gradientUnits="userSpaceOnUse" x1="239.4521" y1="59.0586" x2="239.4521" y2="39.6201">
			<stop  offset="0" style="stop-color:#FFFFFF"/>
			<stop  offset="1" style="stop-color:#000000"/>
		</linearGradient>
		<path fill="url(#SVGID_9_)" stroke="#FFFFFF" stroke-width="2" stroke-miterlimit="10" d="M250.688,59.059h-0.85v-8.423h-20.742
			v8.423h-0.879V39.62h0.879v10.591h20.742V39.62h0.85V59.059z"/>
		<linearGradient id="SVGID_10_" gradientUnits="userSpaceOnUse" x1="274.0225" y1="59.2783" x2="274.0225" y2="39.4297">
			<stop  offset="0" style="stop-color:#FFFFFF"/>
			<stop  offset="1" style="stop-color:#000000"/>
		</linearGradient>
		<path fill="url(#SVGID_10_)" stroke="#FFFFFF" stroke-width="2" stroke-miterlimit="10" d="M285.258,53.653
			c0,1.563-1.094,2.891-3.281,3.984s-4.844,1.641-7.969,1.641s-5.781-0.547-7.969-1.641c-2.168-1.104-3.252-2.432-3.252-3.984
			v-8.628c0-1.563,1.084-2.886,3.252-3.97c2.188-1.084,4.844-1.626,7.969-1.626c3.105,0,5.762,0.542,7.969,1.626
			c2.188,1.084,3.281,2.407,3.281,3.97V53.653z M281.361,41.334c-2.012-1.006-4.463-1.509-7.354-1.509
			c-2.871,0-5.313,0.503-7.324,1.509s-3.018,2.236-3.018,3.691v8.628c0,1.445,1.006,2.671,3.018,3.677s4.453,1.509,7.324,1.509
			s5.322-0.508,7.354-1.523s3.047-2.236,3.047-3.662v-8.628C284.408,43.58,283.393,42.35,281.361,41.334z"/>
		<linearGradient id="SVGID_11_" gradientUnits="userSpaceOnUse" x1="308.5928" y1="59.2783" x2="308.5928" y2="39.4297">
			<stop  offset="0" style="stop-color:#FFFFFF"/>
			<stop  offset="1" style="stop-color:#000000"/>
		</linearGradient>
		<path fill="url(#SVGID_11_)" stroke="#FFFFFF" stroke-width="2" stroke-miterlimit="10" d="M319.828,53.653
			c0,1.563-1.094,2.891-3.281,3.984s-4.844,1.641-7.969,1.641s-5.781-0.547-7.969-1.641c-2.168-1.104-3.252-2.432-3.252-3.984
			v-8.628c0-1.563,1.084-2.886,3.252-3.97c2.188-1.084,4.844-1.626,7.969-1.626c3.105,0,5.762,0.542,7.969,1.626
			c2.188,1.084,3.281,2.407,3.281,3.97V53.653z M315.932,41.334c-2.012-1.006-4.463-1.509-7.354-1.509
			c-2.871,0-5.313,0.503-7.324,1.509s-3.018,2.236-3.018,3.691v8.628c0,1.445,1.006,2.671,3.018,3.677s4.453,1.509,7.324,1.509
			s5.322-0.508,7.354-1.523s3.047-2.236,3.047-3.662v-8.628C318.979,43.58,317.963,42.35,315.932,41.334z"/>
		<linearGradient id="SVGID_12_" gradientUnits="userSpaceOnUse" x1="343.1631" y1="59.2783" x2="343.1631" y2="39.6201">
			<stop  offset="0" style="stop-color:#FFFFFF"/>
			<stop  offset="1" style="stop-color:#000000"/>
		</linearGradient>
		<path fill="url(#SVGID_12_)" stroke="#FFFFFF" stroke-width="2" stroke-miterlimit="10" d="M353.959,59.278h-21.592v-0.439h10.371
			V39.62h0.879v19.219h10.342V59.278z"/>
		<linearGradient id="SVGID_13_" gradientUnits="userSpaceOnUse" x1="375.3604" y1="59.2783" x2="375.3604" y2="39.4297">
			<stop  offset="0" style="stop-color:#FFFFFF"/>
			<stop  offset="1" style="stop-color:#000000"/>
		</linearGradient>
		<path fill="url(#SVGID_13_)" stroke="#FFFFFF" stroke-width="2" stroke-miterlimit="10" d="M384.223,39.825h-16.846v10.386h12.51
			v0.425h-12.51v8.203h16.846v0.439h-17.725V39.43h17.725V39.825z"/>
		<linearGradient id="SVGID_14_" gradientUnits="userSpaceOnUse" x1="407.9678" y1="59.2783" x2="407.9678" y2="39.5469">
			<stop  offset="0" style="stop-color:#FFFFFF"/>
			<stop  offset="1" style="stop-color:#000000"/>
		</linearGradient>
		<path fill="url(#SVGID_14_)" stroke="#FFFFFF" stroke-width="2" stroke-miterlimit="10" d="M414.955,58.238
			c-2.031,0.693-4.541,1.04-7.529,1.04h-10.693V39.62h0.879v8.423h9.814c0.859,0,1.689,0.029,2.49,0.088l8.467-8.584l0.791,0.161
			l-8.379,8.511c5.605,0.586,8.408,2.397,8.408,5.435C419.203,55.743,417.787,57.271,414.955,58.238z M414.486,49.42
			c-1.836-0.625-4.189-0.938-7.061-0.938h-9.814v10.356h9.814c2.832,0,5.186-0.322,7.061-0.967c2.578-0.879,3.867-2.285,3.867-4.219
			C418.354,51.69,417.064,50.279,414.486,49.42z"/>
		<linearGradient id="SVGID_15_" gradientUnits="userSpaceOnUse" x1="442.5381" y1="59.2783" x2="442.5381" y2="39.4297">
			<stop  offset="0" style="stop-color:#FFFFFF"/>
			<stop  offset="1" style="stop-color:#000000"/>
		</linearGradient>
		<path fill="url(#SVGID_15_)" stroke="#FFFFFF" stroke-width="2" stroke-miterlimit="10" d="M447.943,48.204
			c-4.023,1.025-6.836,1.729-8.438,2.109c-0.918,0.205-1.563,0.352-1.934,0.439c-3.594,0.889-5.391,2.217-5.391,3.984
			c0,1.016,0.664,1.914,1.992,2.695c1.602,0.938,3.818,1.406,6.65,1.406c1.973,0,5.352-0.41,10.137-1.23l0.469,0.366
			c-2.969,0.869-6.504,1.304-10.605,1.304c-3.086,0-5.527-0.522-7.324-1.567c-1.465-0.869-2.197-1.86-2.197-2.974
			c0-1.426,1.104-2.603,3.311-3.53c1.582-0.498,3.076-0.923,4.482-1.274l6.504-1.626c2.344-0.586,4.023-1.133,5.039-1.641
			c1.523-0.752,2.285-1.675,2.285-2.769c0-0.986-0.684-1.88-2.051-2.681c-1.621-0.928-3.682-1.392-6.182-1.392
			c-2.148,0-6.387,0.708-12.715,2.124l-0.498-0.337c1.836-0.635,3.945-1.157,6.328-1.567c2.461-0.41,4.756-0.615,6.885-0.615
			c2.832,0,5.107,0.503,6.826,1.509c1.504,0.898,2.256,1.885,2.256,2.959C453.773,45.733,451.83,47.169,447.943,48.204z"/>
	</g>
</g>
</svg>
