<?xml version="1.0" encoding="utf-8"?>
<!-- Generator: Adobe Illustrator 15.1.0, SVG Export Plug-In . SVG Version: 6.00 Build 0)  -->
<!DOCTYPE svg PUBLIC "-//W3C//DTD SVG 1.1//EN" "http://www.w3.org/Graphics/SVG/1.1/DTD/svg11.dtd">
<svg version="1.1" id="Livello_1" xmlns="http://www.w3.org/2000/svg" xmlns:xlink="http://www.w3.org/1999/xlink" x="0px" y="0px"
	 width="29.848px" height="29.848px" viewBox="0 0 29.848 29.848" enable-background="new 0 0 29.848 29.848" xml:space="preserve">
<path fill="#010101" d="M14.81,0C6.567,0-0.114,6.681-0.114,14.924S6.567,29.848,14.81,29.848c8.242,0,14.923-6.681,14.923-14.924
	S23.051,0,14.81,0z M24.559,8.32c0.008,0.165,0.012,0.33,0.012,0.495c0,5.059-3.85,10.891-10.89,10.891
	c-2.161,0-4.173-0.635-5.867-1.72c0.3,0.034,0.604,0.054,0.914,0.054c1.793,0,3.443-0.612,4.753-1.638
	c-1.674-0.031-3.088-1.138-3.574-2.658c0.233,0.046,0.472,0.068,0.719,0.068c0.349,0,0.688-0.047,1.008-0.134
	c-1.75-0.353-3.07-1.898-3.07-3.753c0-0.016,0-0.031,0.001-0.047c0.516,0.285,1.106,0.458,1.733,0.478
	C9.27,9.67,8.595,8.499,8.595,7.171c0-0.702,0.188-1.36,0.518-1.925C11,7.562,13.82,9.084,17.001,9.245
	c-0.065-0.281-0.099-0.572-0.099-0.872c0-2.114,1.714-3.827,3.826-3.827c1.102,0,2.096,0.464,2.794,1.208
	c0.872-0.171,1.692-0.489,2.43-0.929c-0.285,0.894-0.892,1.644-1.683,2.118c0.775-0.092,1.513-0.298,2.199-0.604
	C25.956,7.106,25.307,7.78,24.559,8.32L24.559,8.32z"/>
</svg>
