<?xml version="1.0" encoding="utf-8"?>
<!-- Generator: Adobe Illustrator 15.1.0, SVG Export Plug-In . SVG Version: 6.00 Build 0)  -->
<!DOCTYPE svg PUBLIC "-//W3C//DTD SVG 1.1//EN" "http://www.w3.org/Graphics/SVG/1.1/DTD/svg11.dtd">
<svg version="1.1" id="Livello_1" xmlns="http://www.w3.org/2000/svg" xmlns:xlink="http://www.w3.org/1999/xlink" x="0px" y="0px"
	 width="49.25px" height="10.741px" viewBox="0 0 49.25 10.741" enable-background="new 0 0 49.25 10.741" xml:space="preserve">
<g>
	<g>
		<path fill="#414042" stroke="#414042" stroke-width="0.25" stroke-miterlimit="10" d="M6.466,1.6H2.638V4.99h3.541v1.032H2.638
			v4.341H1.49V0.561h4.977V1.6z"/>
		<path fill="#414042" stroke="#414042" stroke-width="0.25" stroke-miterlimit="10" d="M12.626,10.528
			c-1.39,0-2.503-0.459-3.339-1.375C8.451,8.237,8.033,7.045,8.033,5.578c0-1.577,0.426-2.834,1.278-3.773s2.012-1.408,3.479-1.408
			c1.354,0,2.444,0.456,3.271,1.367c0.828,0.912,1.241,2.103,1.241,3.575c0,1.599-0.424,2.865-1.271,3.794
			S14.048,10.528,12.626,10.528z M12.708,1.436c-1.03,0-1.866,0.372-2.509,1.114S9.236,4.268,9.236,5.476s0.313,2.179,0.94,2.916
			c0.626,0.736,1.443,1.104,2.45,1.104c1.075,0,1.923-0.351,2.543-1.053c0.62-0.701,0.93-1.684,0.93-2.946
			c0-1.294-0.301-2.294-0.902-3.001S13.766,1.436,12.708,1.436z"/>
		<path fill="#414042" stroke="#414042" stroke-width="0.25" stroke-miterlimit="10" d="M26.608,10.364h-1.367L23.6,7.616
			c-0.15-0.256-0.296-0.473-0.438-0.653s-0.286-0.327-0.434-0.44c-0.148-0.114-0.309-0.197-0.479-0.25
			c-0.172-0.053-0.364-0.079-0.578-0.079h-0.943v4.17h-1.148V0.561h2.926c0.429,0,0.824,0.054,1.186,0.161
			c0.363,0.107,0.678,0.27,0.943,0.489c0.268,0.219,0.476,0.491,0.626,0.817s0.226,0.708,0.226,1.145
			c0,0.342-0.051,0.655-0.154,0.94c-0.102,0.285-0.248,0.539-0.438,0.762c-0.188,0.223-0.416,0.414-0.684,0.571
			c-0.266,0.157-0.565,0.279-0.898,0.366v0.027c0.164,0.073,0.307,0.156,0.428,0.25c0.12,0.093,0.235,0.204,0.345,0.331
			c0.109,0.128,0.218,0.273,0.325,0.435c0.106,0.161,0.227,0.35,0.358,0.563L26.608,10.364z M20.729,1.6v3.555h1.559
			c0.287,0,0.553-0.043,0.797-0.13c0.243-0.086,0.454-0.211,0.632-0.373s0.316-0.36,0.417-0.595s0.15-0.498,0.15-0.79
			c0-0.524-0.17-0.933-0.51-1.227C23.435,1.747,22.944,1.6,22.301,1.6H20.729z"/>
		<path fill="#414042" stroke="#414042" stroke-width="0.25" stroke-miterlimit="10" d="M35.475,6.399
			c0,2.752-1.242,4.129-3.726,4.129c-2.379,0-3.568-1.324-3.568-3.973V0.561h1.148v5.92c0,2.01,0.848,3.014,2.543,3.014
			c1.636,0,2.454-0.971,2.454-2.912V0.561h1.148V6.399z"/>
		<path fill="#414042" stroke="#414042" stroke-width="0.25" stroke-miterlimit="10" d="M48.062,10.364h-1.121v-4.02
			c0-0.775-0.12-1.336-0.358-1.682c-0.24-0.346-0.642-0.52-1.207-0.52c-0.479,0-0.885,0.219-1.221,0.656
			c-0.334,0.438-0.502,0.961-0.502,1.573v3.992h-1.121V6.208c0-1.377-0.531-2.065-1.593-2.065c-0.492,0-0.897,0.206-1.217,0.619
			s-0.479,0.949-0.479,1.61v3.992h-1.121v-7h1.121v1.107h0.027c0.497-0.848,1.222-1.271,2.174-1.271c0.479,0,0.896,0.133,1.251,0.4
			s0.6,0.616,0.731,1.049c0.52-0.966,1.294-1.449,2.324-1.449c1.54,0,2.311,0.95,2.311,2.851V10.364z"/>
	</g>
</g>
</svg>
