<?xml version="1.0" encoding="utf-8"?>
<!-- Generator: Adobe Illustrator 15.1.0, SVG Export Plug-In . SVG Version: 6.00 Build 0)  -->
<!DOCTYPE svg PUBLIC "-//W3C//DTD SVG 1.1//EN" "http://www.w3.org/Graphics/SVG/1.1/DTD/svg11.dtd">
<svg version="1.1" id="Livello_1" xmlns="http://www.w3.org/2000/svg" xmlns:xlink="http://www.w3.org/1999/xlink" x="0px" y="0px"
	 width="118.84px" height="10.741px" viewBox="0 0 118.84 10.741" enable-background="new 0 0 118.84 10.741" xml:space="preserve">
<g>
	<g>
		<path fill="#414042" stroke="#414042" stroke-width="0.25" stroke-miterlimit="10" d="M5.597,6.658v3.705H4.449V0.561h2.693
			c1.048,0,1.86,0.255,2.438,0.766c0.576,0.51,0.864,1.23,0.864,2.16s-0.32,1.691-0.96,2.283C8.843,6.362,7.978,6.658,6.889,6.658
			H5.597z M5.597,1.6v4.02H6.8c0.793,0,1.398-0.181,1.814-0.543c0.418-0.362,0.626-0.874,0.626-1.535
			c0-1.294-0.766-1.941-2.297-1.941H5.597z"/>
		<path fill="#414042" stroke="#414042" stroke-width="0.25" stroke-miterlimit="10" d="M20.008,10.363H18.86V5.893h-5.072v4.471
			h-1.148V0.561h1.148v4.3h5.072v-4.3h1.148V10.363z"/>
		<path fill="#414042" stroke="#414042" stroke-width="0.25" stroke-miterlimit="10" d="M26.88,10.527
			c-1.39,0-2.503-0.458-3.34-1.374c-0.836-0.916-1.254-2.108-1.254-3.575c0-1.577,0.426-2.834,1.278-3.773s2.012-1.408,3.479-1.408
			c1.354,0,2.443,0.456,3.271,1.367c0.826,0.912,1.24,2.103,1.24,3.575c0,1.6-0.424,2.864-1.271,3.794S28.302,10.527,26.88,10.527z
			 M26.962,1.436c-1.03,0-1.866,0.372-2.509,1.114S23.49,4.268,23.49,5.476s0.313,2.18,0.939,2.916
			c0.627,0.736,1.444,1.104,2.451,1.104c1.075,0,1.923-0.351,2.543-1.053s0.93-1.684,0.93-2.946c0-1.294-0.301-2.294-0.902-3.001
			S28.02,1.436,26.962,1.436z"/>
		<path fill="#414042" stroke="#414042" stroke-width="0.25" stroke-miterlimit="10" d="M39.001,1.6h-2.83v8.764h-1.148V1.6H32.2
			V0.561h6.802V1.6z"/>
		<path fill="#414042" stroke="#414042" stroke-width="0.25" stroke-miterlimit="10" d="M44.212,10.527
			c-1.39,0-2.503-0.458-3.34-1.374c-0.836-0.916-1.254-2.108-1.254-3.575c0-1.577,0.426-2.834,1.278-3.773s2.012-1.408,3.479-1.408
			c1.354,0,2.443,0.456,3.271,1.367c0.826,0.912,1.24,2.103,1.24,3.575c0,1.6-0.424,2.864-1.271,3.794S45.634,10.527,44.212,10.527z
			 M44.294,1.436c-1.03,0-1.866,0.372-2.509,1.114s-0.964,1.718-0.964,2.926s0.313,2.18,0.939,2.916
			c0.627,0.736,1.444,1.104,2.451,1.104c1.075,0,1.923-0.351,2.543-1.053s0.93-1.684,0.93-2.946c0-1.294-0.301-2.294-0.902-3.001
			S45.352,1.436,44.294,1.436z"/>
		<path fill="#414042" stroke="#414042" stroke-width="0.25" stroke-miterlimit="10" d="M50.708,9.967V8.613
			c0.155,0.137,0.341,0.26,0.558,0.369c0.216,0.109,0.443,0.202,0.684,0.277c0.238,0.075,0.479,0.133,0.721,0.174
			s0.465,0.062,0.67,0.062c0.706,0,1.234-0.131,1.582-0.393c0.35-0.262,0.523-0.639,0.523-1.131c0-0.264-0.059-0.495-0.174-0.69
			c-0.117-0.196-0.277-0.375-0.482-0.537s-0.447-0.317-0.729-0.465c-0.279-0.148-0.582-0.304-0.905-0.468
			c-0.342-0.173-0.661-0.349-0.957-0.526s-0.554-0.374-0.772-0.588s-0.391-0.457-0.516-0.728c-0.126-0.271-0.188-0.589-0.188-0.954
			c0-0.447,0.098-0.835,0.294-1.166s0.453-0.603,0.772-0.817s0.683-0.374,1.091-0.479c0.407-0.105,0.823-0.157,1.247-0.157
			c0.966,0,1.67,0.116,2.112,0.349v1.292c-0.579-0.401-1.321-0.602-2.229-0.602c-0.251,0-0.501,0.026-0.752,0.079
			s-0.474,0.138-0.67,0.256s-0.355,0.271-0.479,0.458s-0.185,0.415-0.185,0.684c0,0.25,0.047,0.467,0.14,0.649
			c0.094,0.182,0.231,0.349,0.414,0.499s0.404,0.296,0.666,0.438c0.263,0.141,0.564,0.296,0.906,0.465
			c0.351,0.173,0.684,0.355,0.998,0.547s0.59,0.403,0.827,0.636s0.425,0.49,0.563,0.772c0.14,0.283,0.209,0.606,0.209,0.971
			c0,0.483-0.095,0.892-0.283,1.227c-0.189,0.335-0.445,0.607-0.766,0.817c-0.322,0.209-0.692,0.361-1.111,0.455
			s-0.861,0.14-1.326,0.14c-0.155,0-0.347-0.013-0.574-0.038s-0.46-0.062-0.697-0.109s-0.461-0.107-0.674-0.178
			C51.005,10.132,50.835,10.053,50.708,9.967z"/>
		<path fill="#414042" stroke="#414042" stroke-width="0.25" stroke-miterlimit="10" d="M66.322,10.363h-1.148V5.893h-5.072v4.471
			h-1.148V0.561h1.148v4.3h5.072v-4.3h1.148V10.363z"/>
		<path fill="#414042" stroke="#414042" stroke-width="0.25" stroke-miterlimit="10" d="M73.194,10.527
			c-1.39,0-2.503-0.458-3.339-1.374C69.018,8.237,68.6,7.045,68.6,5.578c0-1.577,0.426-2.834,1.278-3.773s2.012-1.408,3.479-1.408
			c1.354,0,2.444,0.456,3.271,1.367c0.828,0.912,1.241,2.103,1.241,3.575c0,1.6-0.424,2.864-1.271,3.794
			S74.616,10.527,73.194,10.527z M73.276,1.436c-1.03,0-1.866,0.372-2.509,1.114s-0.964,1.718-0.964,2.926s0.313,2.18,0.94,2.916
			c0.626,0.736,1.443,1.104,2.45,1.104c1.075,0,1.923-0.351,2.543-1.053s0.93-1.684,0.93-2.946c0-1.294-0.301-2.294-0.902-3.001
			S74.333,1.436,73.276,1.436z"/>
		<path fill="#414042" stroke="#414042" stroke-width="0.25" stroke-miterlimit="10" d="M84.098,10.527
			c-1.39,0-2.503-0.458-3.339-1.374c-0.837-0.916-1.255-2.108-1.255-3.575c0-1.577,0.426-2.834,1.278-3.773s2.012-1.408,3.479-1.408
			c1.354,0,2.444,0.456,3.271,1.367c0.828,0.912,1.241,2.103,1.241,3.575c0,1.6-0.424,2.864-1.271,3.794S85.52,10.527,84.098,10.527
			z M84.18,1.436c-1.03,0-1.866,0.372-2.509,1.114s-0.964,1.718-0.964,2.926s0.313,2.18,0.94,2.916
			c0.626,0.736,1.443,1.104,2.45,1.104c1.075,0,1.923-0.351,2.543-1.053s0.93-1.684,0.93-2.946c0-1.294-0.301-2.294-0.902-3.001
			S85.238,1.436,84.18,1.436z"/>
		<path fill="#414042" stroke="#414042" stroke-width="0.25" stroke-miterlimit="10" d="M96.22,1.6h-2.83v8.764h-1.148V1.6h-2.823
			V0.561h6.802V1.6z"/>
		<path fill="#414042" stroke="#414042" stroke-width="0.25" stroke-miterlimit="10" d="M103.303,10.363h-5.195V0.561h4.977V1.6
			h-3.828V4.86h3.541v1.032h-3.541v3.432h4.047V10.363z"/>
		<path fill="#414042" stroke="#414042" stroke-width="0.25" stroke-miterlimit="10" d="M112.567,10.363H111.2l-1.641-2.748
			c-0.15-0.255-0.296-0.473-0.438-0.653s-0.286-0.327-0.435-0.441c-0.147-0.114-0.307-0.197-0.479-0.25
			c-0.17-0.052-0.363-0.079-0.577-0.079h-0.943v4.17h-1.148V0.561h2.926c0.429,0,0.823,0.054,1.187,0.161
			c0.361,0.107,0.676,0.27,0.943,0.489c0.266,0.219,0.475,0.491,0.625,0.817s0.226,0.708,0.226,1.145
			c0,0.342-0.052,0.655-0.153,0.94c-0.104,0.285-0.249,0.539-0.438,0.762c-0.189,0.223-0.418,0.414-0.684,0.571
			c-0.268,0.157-0.566,0.279-0.899,0.366v0.027c0.164,0.073,0.307,0.156,0.427,0.25c0.121,0.093,0.236,0.204,0.346,0.332
			s0.218,0.272,0.324,0.434c0.107,0.162,0.228,0.35,0.359,0.564L112.567,10.363z M106.688,1.6v3.555h1.559
			c0.287,0,0.553-0.043,0.796-0.13c0.244-0.086,0.455-0.211,0.633-0.373s0.316-0.36,0.417-0.595s0.15-0.498,0.15-0.79
			c0-0.524-0.17-0.933-0.509-1.227c-0.34-0.294-0.831-0.441-1.474-0.441H106.688z"/>
		<path fill="#414042" stroke="#414042" stroke-width="0.25" stroke-miterlimit="10" d="M113.69,10.11V8.907
			c0.61,0.451,1.283,0.677,2.017,0.677c0.984,0,1.477-0.328,1.477-0.984c0-0.187-0.042-0.345-0.127-0.475
			c-0.084-0.13-0.197-0.245-0.342-0.345c-0.143-0.1-0.312-0.19-0.506-0.27c-0.193-0.08-0.401-0.163-0.625-0.25
			c-0.31-0.123-0.582-0.247-0.816-0.373c-0.235-0.125-0.432-0.267-0.588-0.424c-0.158-0.157-0.276-0.336-0.355-0.537
			c-0.08-0.201-0.12-0.435-0.12-0.704c0-0.328,0.075-0.619,0.226-0.872s0.351-0.465,0.602-0.636s0.537-0.3,0.857-0.386
			c0.322-0.086,0.653-0.13,0.995-0.13c0.606,0,1.148,0.105,1.627,0.314v1.135c-0.515-0.337-1.107-0.506-1.777-0.506
			c-0.21,0-0.398,0.024-0.567,0.072s-0.313,0.115-0.434,0.202c-0.121,0.086-0.215,0.19-0.281,0.311
			c-0.065,0.121-0.099,0.254-0.099,0.4c0,0.182,0.033,0.335,0.099,0.458c0.066,0.123,0.163,0.232,0.291,0.328
			s0.282,0.182,0.465,0.26s0.39,0.162,0.622,0.253c0.31,0.119,0.588,0.24,0.834,0.366s0.456,0.267,0.629,0.424
			s0.307,0.338,0.399,0.543c0.094,0.205,0.141,0.449,0.141,0.731c0,0.346-0.076,0.647-0.229,0.902
			c-0.153,0.255-0.357,0.467-0.612,0.636s-0.549,0.294-0.882,0.376s-0.682,0.123-1.046,0.123
			C114.843,10.527,114.218,10.388,113.69,10.11z"/>
	</g>
</g>
</svg>
