<?xml version="1.0" encoding="utf-8"?>
<!-- Generator: Adobe Illustrator 15.1.0, SVG Export Plug-In . SVG Version: 6.00 Build 0)  -->
<!DOCTYPE svg PUBLIC "-//W3C//DTD SVG 1.1//EN" "http://www.w3.org/Graphics/SVG/1.1/DTD/svg11.dtd">
<svg version="1.1" id="Livello_1" xmlns="http://www.w3.org/2000/svg" xmlns:xlink="http://www.w3.org/1999/xlink" x="0px" y="0px"
	 width="111.085px" height="10.741px" viewBox="0 0 111.085 10.741" enable-background="new 0 0 111.085 10.741"
	 xml:space="preserve">
<g>
	<g>
		<path fill="#414042" stroke="#414042" stroke-width="0.25" stroke-miterlimit="10" d="M6.564,10.364H1.479V0.561h1.148v8.764
			h3.938V10.364z"/>
		<path fill="#414042" stroke="#414042" stroke-width="0.25" stroke-miterlimit="10" d="M16.409,10.364h-1.271l-1.039-2.748H9.942
			l-0.978,2.748H7.687l3.76-9.803h1.189L16.409,10.364z M13.723,6.583l-1.538-4.176c-0.05-0.137-0.101-0.355-0.15-0.656h-0.027
			c-0.046,0.278-0.098,0.497-0.157,0.656l-1.524,4.176H13.723z"/>
		<path fill="#414042" stroke="#414042" stroke-width="0.25" stroke-miterlimit="10" d="M24.689,0.561l-3.63,9.803h-1.265
			L16.24,0.561h1.278l2.714,7.772c0.087,0.251,0.152,0.541,0.198,0.869h0.027c0.036-0.273,0.111-0.568,0.226-0.883l2.769-7.758
			H24.689z"/>
		<path fill="#414042" stroke="#414042" stroke-width="0.25" stroke-miterlimit="10" d="M30.316,10.528
			c-1.39,0-2.503-0.459-3.34-1.375c-0.836-0.916-1.254-2.107-1.254-3.574c0-1.577,0.426-2.835,1.278-3.774s2.012-1.408,3.479-1.408
			c1.354,0,2.443,0.456,3.271,1.367c0.826,0.912,1.24,2.103,1.24,3.575c0,1.6-0.424,2.865-1.271,3.795S31.738,10.528,30.316,10.528z
			 M30.398,1.436c-1.03,0-1.866,0.372-2.509,1.114s-0.964,1.718-0.964,2.925c0,1.208,0.313,2.18,0.939,2.916
			c0.627,0.736,1.444,1.104,2.451,1.104c1.075,0,1.923-0.351,2.543-1.053c0.62-0.701,0.93-1.684,0.93-2.945
			c0-1.295-0.301-2.295-0.902-3.001S31.456,1.436,30.398,1.436z"/>
		<path fill="#414042" stroke="#414042" stroke-width="0.25" stroke-miterlimit="10" d="M44.298,10.364h-1.367L41.29,7.616
			c-0.15-0.256-0.296-0.473-0.438-0.653s-0.286-0.327-0.435-0.44c-0.147-0.114-0.307-0.197-0.479-0.25
			c-0.17-0.053-0.363-0.078-0.577-0.078h-0.943v4.17h-1.148V0.561h2.926c0.429,0,0.823,0.054,1.187,0.161
			c0.361,0.107,0.676,0.27,0.943,0.489c0.266,0.219,0.475,0.491,0.625,0.817s0.226,0.708,0.226,1.145
			c0,0.342-0.052,0.655-0.153,0.94c-0.104,0.285-0.249,0.539-0.438,0.762c-0.189,0.224-0.418,0.414-0.684,0.571
			c-0.268,0.157-0.566,0.279-0.899,0.366v0.027c0.164,0.072,0.307,0.156,0.427,0.249c0.121,0.093,0.236,0.204,0.346,0.331
			c0.109,0.128,0.218,0.273,0.324,0.435c0.107,0.161,0.228,0.35,0.359,0.563L44.298,10.364z M38.419,1.6v3.555h1.559
			c0.287,0,0.553-0.044,0.796-0.131c0.244-0.086,0.455-0.211,0.633-0.372s0.316-0.36,0.417-0.595s0.15-0.498,0.15-0.79
			c0-0.524-0.17-0.933-0.509-1.227C41.125,1.747,40.634,1.6,39.991,1.6H38.419z"/>
		<path fill="#414042" stroke="#414042" stroke-width="0.25" stroke-miterlimit="10" d="M48.366,10.528
			c-1.034,0-1.86-0.328-2.478-0.981c-0.618-0.653-0.927-1.521-0.927-2.601c0-1.176,0.321-2.095,0.964-2.755s1.511-0.991,2.604-0.991
			c1.044,0,1.858,0.321,2.444,0.964c0.585,0.642,0.878,1.534,0.878,2.673c0,1.116-0.315,2.01-0.946,2.683
			C50.274,10.192,49.428,10.528,48.366,10.528z M48.448,4.143c-0.72,0-1.29,0.245-1.709,0.735c-0.419,0.49-0.629,1.166-0.629,2.027
			c0,0.829,0.212,1.482,0.636,1.961s0.991,0.719,1.702,0.719c0.725,0,1.282-0.235,1.671-0.705c0.391-0.469,0.585-1.137,0.585-2.002
			c0-0.875-0.194-1.55-0.585-2.023C49.73,4.379,49.173,4.143,48.448,4.143z"/>
		<path fill="#414042" stroke="#414042" stroke-width="0.25" stroke-miterlimit="10" d="M59.232,13.659H58.22v-14h1.012V13.659z"/>
		<path fill="#414042" stroke="#414042" stroke-width="0.25" stroke-miterlimit="10" d="M71.41,10.364h-5.195V0.561h4.977V1.6
			h-3.828v3.26h3.541v1.033h-3.541v3.432h4.047V10.364z"/>
		<path fill="#414042" stroke="#414042" stroke-width="0.25" stroke-miterlimit="10" d="M80.933,0.561l-3.631,9.803h-1.264
			l-3.555-9.803h1.277l2.715,7.772c0.086,0.251,0.152,0.541,0.197,0.869h0.027c0.037-0.273,0.111-0.568,0.227-0.883l2.768-7.758
			H80.933z"/>
		<path fill="#414042" stroke="#414042" stroke-width="0.25" stroke-miterlimit="10" d="M87.886,10.364h-5.195V0.561h4.977V1.6
			h-3.828v3.26h3.541v1.033h-3.541v3.432h4.047V10.364z"/>
		<path fill="#414042" stroke="#414042" stroke-width="0.25" stroke-miterlimit="10" d="M98.025,10.364h-1.408L91.572,2.55
			c-0.127-0.196-0.232-0.401-0.314-0.615h-0.041c0.037,0.209,0.055,0.659,0.055,1.347v7.083h-1.148V0.561h1.49l4.908,7.69
			c0.205,0.319,0.338,0.538,0.396,0.656h0.027c-0.045-0.282-0.068-0.763-0.068-1.441V0.561h1.148V10.364z"/>
		<path fill="#414042" stroke="#414042" stroke-width="0.25" stroke-miterlimit="10" d="M106.742,1.6h-2.83v8.764h-1.148V1.6h-2.822
			V0.561h6.801V1.6z"/>
		<path fill="#414042" stroke="#414042" stroke-width="0.25" stroke-miterlimit="10" d="M108.98,1.586
			c-0.201,0-0.371-0.068-0.514-0.205c-0.141-0.137-0.211-0.31-0.211-0.52s0.07-0.384,0.211-0.523
			c0.143-0.139,0.313-0.208,0.514-0.208c0.205,0,0.379,0.069,0.521,0.208c0.145,0.139,0.217,0.313,0.217,0.523
			c0,0.201-0.072,0.372-0.217,0.513C109.359,1.515,109.185,1.586,108.98,1.586z M109.527,8.409c0,0.643,0.248,0.963,0.744,0.963
			c0.201,0,0.381-0.024,0.541-0.074v1.012c-0.088,0.022-0.203,0.044-0.346,0.064c-0.145,0.021-0.295,0.031-0.455,0.031
			c-0.223,0-0.432-0.037-0.629-0.109c-0.195-0.073-0.365-0.186-0.51-0.336c-0.143-0.15-0.256-0.338-0.342-0.563
			c-0.084-0.226-0.125-0.489-0.125-0.79V3.363h1.121V8.409z"/>
	</g>
</g>
</svg>
