<?xml version="1.0" encoding="utf-8"?>
<!-- Generator: Adobe Illustrator 15.1.0, SVG Export Plug-In . SVG Version: 6.00 Build 0)  -->
<!DOCTYPE svg PUBLIC "-//W3C//DTD SVG 1.1//EN" "http://www.w3.org/Graphics/SVG/1.1/DTD/svg11.dtd">
<svg version="1.1" id="Livello_1" xmlns="http://www.w3.org/2000/svg" xmlns:xlink="http://www.w3.org/1999/xlink" x="0px" y="0px"
	 width="74.478px" height="10.741px" viewBox="0 0 74.478 10.741" enable-background="new 0 0 74.478 10.741" xml:space="preserve">
<g>
	<g>
		<path fill="#414042" stroke="#414042" stroke-width="0.25" stroke-miterlimit="10" d="M8.556,10.364H7.188L5.548,7.616
			C5.397,7.36,5.252,7.143,5.11,6.962s-0.286-0.327-0.434-0.44c-0.148-0.114-0.309-0.197-0.479-0.25
			C4.026,6.219,3.834,6.194,3.62,6.194H2.677v4.17H1.528V0.561h2.926c0.429,0,0.824,0.054,1.186,0.161
			c0.363,0.107,0.678,0.27,0.943,0.489c0.268,0.219,0.476,0.491,0.626,0.817s0.226,0.708,0.226,1.145
			c0,0.342-0.051,0.655-0.154,0.94C7.179,4.396,7.032,4.651,6.843,4.874C6.654,5.097,6.427,5.288,6.159,5.445
			C5.894,5.602,5.594,5.724,5.261,5.811v0.027c0.164,0.072,0.307,0.156,0.428,0.249c0.12,0.093,0.235,0.204,0.345,0.331
			c0.109,0.128,0.218,0.273,0.325,0.435c0.106,0.161,0.227,0.35,0.358,0.563L8.556,10.364z M2.677,1.6v3.555h1.559
			c0.287,0,0.553-0.044,0.797-0.131c0.243-0.086,0.454-0.211,0.632-0.372s0.316-0.36,0.417-0.595s0.15-0.498,0.15-0.79
			c0-0.524-0.17-0.933-0.51-1.227C5.383,1.747,4.892,1.6,4.249,1.6H2.677z"/>
		<path fill="#414042" stroke="#414042" stroke-width="0.25" stroke-miterlimit="10" d="M15.447,10.364h-5.195V0.561h4.977V1.6H11.4
			v3.26h3.541v1.033H11.4v3.432h4.047V10.364z"/>
		<path fill="#414042" stroke="#414042" stroke-width="0.25" stroke-miterlimit="10" d="M25.013,9.694
			c-0.984,0.556-2.078,0.834-3.281,0.834c-1.399,0-2.53-0.451-3.395-1.354c-0.863-0.902-1.295-2.097-1.295-3.582
			c0-1.518,0.479-2.763,1.439-3.736c0.959-0.973,2.175-1.459,3.646-1.459c1.066,0,1.962,0.173,2.687,0.52v1.271
			c-0.793-0.501-1.731-0.752-2.816-0.752c-1.099,0-1.998,0.378-2.7,1.135s-1.053,1.736-1.053,2.94c0,1.239,0.326,2.213,0.978,2.922
			s1.536,1.063,2.652,1.063c0.766,0,1.429-0.152,1.989-0.457V6.29h-2.146V5.25h3.295V9.694z"/>
		<path fill="#414042" stroke="#414042" stroke-width="0.25" stroke-miterlimit="10" d="M28.787,10.364h-1.148V0.561h1.148V10.364z"
			/>
		<path fill="#414042" stroke="#414042" stroke-width="0.25" stroke-miterlimit="10" d="M31.257,9.967V8.614
			c0.155,0.137,0.341,0.26,0.557,0.369c0.217,0.109,0.445,0.201,0.684,0.276c0.24,0.075,0.48,0.134,0.722,0.175
			s0.465,0.061,0.67,0.061c0.706,0,1.233-0.131,1.583-0.393c0.348-0.262,0.522-0.639,0.522-1.131c0-0.265-0.058-0.495-0.175-0.691
			c-0.115-0.195-0.276-0.375-0.481-0.536S34.89,6.426,34.61,6.279c-0.281-0.147-0.583-0.304-0.906-0.468
			c-0.342-0.174-0.661-0.35-0.957-0.527s-0.554-0.373-0.772-0.588c-0.219-0.214-0.391-0.457-0.517-0.728
			c-0.125-0.271-0.188-0.589-0.188-0.954c0-0.447,0.098-0.835,0.294-1.166s0.453-0.603,0.772-0.817s0.683-0.374,1.09-0.479
			c0.408-0.105,0.824-0.157,1.248-0.157c0.966,0,1.67,0.116,2.112,0.349v1.292c-0.579-0.401-1.321-0.602-2.229-0.602
			c-0.251,0-0.501,0.026-0.752,0.079s-0.474,0.138-0.67,0.256s-0.355,0.271-0.479,0.458s-0.185,0.415-0.185,0.684
			c0,0.25,0.047,0.467,0.141,0.649c0.093,0.182,0.23,0.349,0.413,0.499s0.404,0.296,0.667,0.438
			c0.262,0.141,0.563,0.296,0.905,0.465c0.351,0.173,0.684,0.355,0.998,0.547s0.59,0.402,0.827,0.635s0.425,0.49,0.564,0.773
			c0.139,0.282,0.208,0.605,0.208,0.971c0,0.482-0.095,0.892-0.284,1.227c-0.188,0.335-0.443,0.607-0.766,0.816
			c-0.32,0.21-0.691,0.361-1.11,0.455s-0.861,0.141-1.326,0.141c-0.155,0-0.347-0.014-0.574-0.038s-0.46-0.062-0.697-0.109
			s-0.462-0.106-0.673-0.178C31.554,10.131,31.385,10.053,31.257,9.967z"/>
		<path fill="#414042" stroke="#414042" stroke-width="0.25" stroke-miterlimit="10" d="M45.299,1.6h-2.83v8.764H41.32V1.6h-2.823
			V0.561h6.802V1.6z"/>
		<path fill="#414042" stroke="#414042" stroke-width="0.25" stroke-miterlimit="10" d="M54.214,10.364h-1.367l-1.641-2.748
			c-0.15-0.256-0.296-0.473-0.438-0.653s-0.286-0.327-0.434-0.44c-0.148-0.114-0.309-0.197-0.479-0.25
			c-0.172-0.053-0.364-0.078-0.578-0.078h-0.943v4.17h-1.148V0.561h2.926c0.429,0,0.824,0.054,1.186,0.161
			c0.363,0.107,0.678,0.27,0.943,0.489c0.268,0.219,0.476,0.491,0.626,0.817s0.226,0.708,0.226,1.145
			c0,0.342-0.051,0.655-0.154,0.94c-0.102,0.285-0.248,0.539-0.438,0.762c-0.188,0.224-0.416,0.414-0.684,0.571
			c-0.266,0.157-0.565,0.279-0.898,0.366v0.027c0.164,0.072,0.307,0.156,0.428,0.249c0.12,0.093,0.235,0.204,0.345,0.331
			c0.109,0.128,0.218,0.273,0.325,0.435c0.106,0.161,0.227,0.35,0.358,0.563L54.214,10.364z M48.335,1.6v3.555h1.559
			c0.287,0,0.553-0.044,0.797-0.131c0.243-0.086,0.454-0.211,0.632-0.372s0.316-0.36,0.417-0.595s0.15-0.498,0.15-0.79
			c0-0.524-0.17-0.933-0.51-1.227C51.041,1.747,50.55,1.6,49.907,1.6H48.335z"/>
		<path fill="#414042" stroke="#414042" stroke-width="0.25" stroke-miterlimit="10" d="M63.499,10.364h-1.271l-1.039-2.748h-4.156
			l-0.978,2.748h-1.278l3.76-9.803h1.189L63.499,10.364z M60.813,6.583l-1.538-4.176c-0.05-0.137-0.101-0.355-0.15-0.656h-0.027
			c-0.046,0.278-0.098,0.497-0.157,0.656l-1.524,4.176H60.813z"/>
		<path fill="#414042" stroke="#414042" stroke-width="0.25" stroke-miterlimit="10" d="M70.083,1.6h-2.83v8.764h-1.148V1.6h-2.823
			V0.561h6.802V1.6z"/>
		<path fill="#414042" stroke="#414042" stroke-width="0.25" stroke-miterlimit="10" d="M72.32,1.586
			c-0.2,0-0.371-0.068-0.513-0.205s-0.212-0.31-0.212-0.52s0.07-0.384,0.212-0.523S72.12,0.13,72.32,0.13
			c0.205,0,0.38,0.069,0.522,0.208c0.145,0.139,0.216,0.313,0.216,0.523c0,0.201-0.071,0.372-0.216,0.513
			C72.7,1.515,72.525,1.586,72.32,1.586z M72.867,8.409c0,0.643,0.248,0.963,0.745,0.963c0.2,0,0.381-0.024,0.54-0.074v1.012
			c-0.087,0.022-0.202,0.044-0.345,0.064c-0.145,0.021-0.296,0.031-0.455,0.031c-0.224,0-0.433-0.037-0.629-0.109
			c-0.196-0.073-0.365-0.186-0.51-0.336c-0.143-0.15-0.257-0.338-0.342-0.563c-0.084-0.226-0.126-0.489-0.126-0.79V3.363h1.121
			V8.409z"/>
	</g>
</g>
</svg>
