<?xml version="1.0" encoding="utf-8"?>
<!-- Generator: Adobe Illustrator 15.1.0, SVG Export Plug-In . SVG Version: 6.00 Build 0)  -->
<!DOCTYPE svg PUBLIC "-//W3C//DTD SVG 1.1//EN" "http://www.w3.org/Graphics/SVG/1.1/DTD/svg11.dtd">
<svg version="1.1" id="Livello_1" xmlns="http://www.w3.org/2000/svg" xmlns:xlink="http://www.w3.org/1999/xlink" x="0px" y="0px"
	 width="25.523px" height="10.741px" viewBox="0 0 25.523 10.741" enable-background="new 0 0 25.523 10.741" xml:space="preserve">
<g>
	<g>
		<path fill="#414042" stroke="#414042" stroke-width="0.25" stroke-miterlimit="10" d="M0.991,9.967V8.614
			c0.155,0.137,0.341,0.26,0.557,0.369c0.217,0.109,0.445,0.201,0.684,0.276c0.24,0.075,0.48,0.134,0.722,0.175
			s0.465,0.061,0.67,0.061c0.706,0,1.233-0.131,1.583-0.393C5.553,8.84,5.728,8.463,5.728,7.971c0-0.265-0.058-0.495-0.175-0.691
			C5.438,7.084,5.277,6.905,5.072,6.744S4.624,6.427,4.344,6.279C4.063,6.131,3.761,5.975,3.438,5.811
			C3.096,5.637,2.777,5.462,2.481,5.284S1.927,4.911,1.708,4.696S1.318,4.239,1.192,3.968C1.067,3.697,1.004,3.379,1.004,3.015
			c0-0.447,0.098-0.835,0.294-1.166s0.453-0.603,0.772-0.817s0.683-0.374,1.09-0.479c0.408-0.105,0.824-0.157,1.248-0.157
			c0.966,0,1.67,0.116,2.112,0.349v1.292C5.942,1.636,5.2,1.436,4.292,1.436c-0.251,0-0.501,0.026-0.752,0.079
			s-0.474,0.138-0.67,0.256S2.515,2.042,2.392,2.229S2.208,2.643,2.208,2.912c0,0.25,0.047,0.467,0.141,0.649
			c0.093,0.182,0.23,0.349,0.413,0.499s0.404,0.296,0.667,0.438C3.69,4.639,3.992,4.794,4.333,4.963
			C4.684,5.136,5.017,5.318,5.332,5.51s0.59,0.403,0.827,0.636s0.425,0.49,0.564,0.772c0.139,0.283,0.208,0.606,0.208,0.971
			c0,0.482-0.095,0.892-0.284,1.227C6.458,9.451,6.204,9.723,5.881,9.932c-0.32,0.21-0.691,0.361-1.11,0.455
			s-0.861,0.141-1.326,0.141c-0.155,0-0.347-0.014-0.574-0.038s-0.46-0.062-0.697-0.109S1.711,10.274,1.5,10.203
			C1.288,10.131,1.119,10.053,0.991,9.967z"/>
		<path fill="#414042" stroke="#414042" stroke-width="0.25" stroke-miterlimit="10" d="M10.384,10.364H9.236V0.561h1.148V10.364z"
			/>
		<path fill="#414042" stroke="#414042" stroke-width="0.25" stroke-miterlimit="10" d="M19.109,1.6h-2.83v8.764H15.13V1.6h-2.823
			V0.561h6.802V1.6z"/>
		<path fill="#414042" stroke="#414042" stroke-width="0.25" stroke-miterlimit="10" d="M25.03,7.144h-4.942
			c0.019,0.779,0.228,1.38,0.629,1.804s0.952,0.637,1.654,0.637c0.788,0,1.513-0.26,2.174-0.779v1.053
			c-0.615,0.446-1.429,0.67-2.44,0.67c-0.989,0-1.766-0.318-2.331-0.954s-0.848-1.53-0.848-2.683c0-1.089,0.309-1.977,0.927-2.663
			c0.617-0.686,1.384-1.029,2.3-1.029s1.625,0.296,2.126,0.889s0.752,1.415,0.752,2.468V7.144z M23.881,6.193
			c-0.005-0.647-0.16-1.151-0.469-1.511c-0.307-0.36-0.734-0.54-1.281-0.54c-0.528,0-0.978,0.189-1.347,0.567
			s-0.597,0.873-0.684,1.483H23.881z"/>
	</g>
</g>
</svg>
