<?xml version="1.0" encoding="utf-8"?>
<!-- Generator: Adobe Illustrator 15.1.0, SVG Export Plug-In . SVG Version: 6.00 Build 0)  -->
<!DOCTYPE svg PUBLIC "-//W3C//DTD SVG 1.1//EN" "http://www.w3.org/Graphics/SVG/1.1/DTD/svg11.dtd">
<svg version="1.1" id="Livello_1" xmlns="http://www.w3.org/2000/svg" xmlns:xlink="http://www.w3.org/1999/xlink" x="0px" y="0px"
	 width="39.345px" height="10.741px" viewBox="0 0 39.345 10.741" enable-background="new 0 0 39.345 10.741" xml:space="preserve">
<g>
	<g>
		<path fill="#3C4F5B" stroke="#3C4F5B" stroke-width="0.25" stroke-miterlimit="10" d="M6.397,10.363H1.311V0.561h1.148v8.764
			h3.938V10.363z"/>
		<path fill="#3C4F5B" stroke="#3C4F5B" stroke-width="0.25" stroke-miterlimit="10" d="M11.723,10.527
			c-1.39,0-2.503-0.458-3.339-1.374C7.547,8.237,7.129,7.046,7.129,5.578c0-1.577,0.426-2.834,1.278-3.773s2.012-1.408,3.479-1.408
			c1.354,0,2.444,0.456,3.271,1.367c0.828,0.912,1.241,2.103,1.241,3.575c0,1.6-0.424,2.864-1.271,3.794
			S13.145,10.527,11.723,10.527z M11.805,1.436c-1.03,0-1.866,0.372-2.509,1.114S8.333,4.268,8.333,5.476s0.313,2.18,0.94,2.916
			c0.626,0.735,1.443,1.104,2.45,1.104c1.075,0,1.923-0.352,2.543-1.053s0.93-1.684,0.93-2.946c0-1.294-0.301-2.294-0.902-3.001
			S12.863,1.436,11.805,1.436z"/>
		<path fill="#3C4F5B" stroke="#3C4F5B" stroke-width="0.25" stroke-miterlimit="10" d="M26.005,9.693
			c-0.984,0.556-2.078,0.834-3.281,0.834c-1.399,0-2.53-0.451-3.395-1.354c-0.863-0.902-1.295-2.097-1.295-3.582
			c0-1.518,0.479-2.763,1.439-3.736c0.959-0.973,2.175-1.459,3.646-1.459c1.066,0,1.962,0.173,2.687,0.52v1.271
			c-0.793-0.501-1.731-0.752-2.816-0.752c-1.099,0-1.998,0.378-2.7,1.135s-1.053,1.736-1.053,2.939c0,1.24,0.326,2.214,0.978,2.923
			c0.651,0.708,1.536,1.063,2.652,1.063c0.766,0,1.429-0.152,1.989-0.458V6.289H22.71V5.25h3.295V9.693z"/>
		<path fill="#3C4F5B" stroke="#3C4F5B" stroke-width="0.25" stroke-miterlimit="10" d="M29.78,10.363h-1.148V0.561h1.148V10.363z"
			/>
		<path fill="#3C4F5B" stroke="#3C4F5B" stroke-width="0.25" stroke-miterlimit="10" d="M38.368,10.363h-1.121V6.371
			c0-1.486-0.542-2.229-1.627-2.229c-0.561,0-1.024,0.211-1.392,0.632c-0.366,0.421-0.55,0.954-0.55,1.596v3.992h-1.121v-7h1.121
			v1.162h0.027C34.234,3.641,35,3.199,36.002,3.199c0.766,0,1.352,0.247,1.757,0.742s0.608,1.209,0.608,2.143V10.363z"/>
	</g>
</g>
</svg>
